<?xml version="1.0" encoding="UTF-8" standalone="no"?><!-- Generator: Gravit.io --><svg xmlns="http://www.w3.org/2000/svg" xmlns:xlink="http://www.w3.org/1999/xlink" style="isolation:isolate" viewBox="0 0 75 380" width="75px" height="380px"><defs><clipPath id="_clipPath_JP4vPvxsA6dzzH6aubPnSzozTtILBux5"><rect width="75" height="380"/></clipPath></defs><g clip-path="url(#_clipPath_JP4vPvxsA6dzzH6aubPnSzozTtILBux5)"><rect width="75" height="380" style="fill:rgb(239,239,239)"/><g><rect x="17.125" y="357" width="40.75" height="7" transform="matrix(1,0,0,1,0,0)" fill="rgb(239,239,239)"/><rect x="17.125" y="364" width="40.75" height="7" transform="matrix(1,0,0,1,0,0)" fill="rgb(48,48,48)"/></g><path d="M 43.593 318 L 67.407 318 C 68.286 318 69 318.714 69 319.593 L 69 349.407 C 69 350.286 68.286 351 67.407 351 L 43.593 351 C 42.714 351 42 350.286 42 349.407 L 42 319.593 C 42 318.714 42.714 318 43.593 318 Z" style="stroke:none;fill:#3A3A3A;stroke-miterlimit:10;"/><path d="M 8.57 287 L 31.43 287 C 32.572 287 33.5 287.928 33.5 289.07 L 33.5 293.93 C 33.5 295.072 32.572 296 31.43 296 L 8.57 296 C 7.428 296 6.5 295.072 6.5 293.93 L 6.5 289.07 C 6.5 287.928 7.428 287 8.57 287 Z" style="stroke:none;fill:#3C78A0;stroke-miterlimit:10;"/><line x1="8" y1="282" x2="68" y2="282" vector-effect="non-scaling-stroke" stroke-width="0.509" stroke="rgb(13,13,13)" stroke-linejoin="miter" stroke-linecap="square" stroke-miterlimit="3"/><path d=" M 24.777 225.94 C 17.718 221.638 13 213.866 13 205.001 C 13 191.479 23.978 180.5 37.5 180.5 C 51.022 180.5 62 191.479 62 205.001 C 62 213.866 57.282 221.638 50.223 225.94" fill="none" vector-effect="non-scaling-stroke" stroke-width="1.172" stroke="rgb(120,120,120)" stroke-linejoin="miter" stroke-linecap="butt" stroke-miterlimit="3"/><path d=" M 24.777 114.937 C 17.718 110.636 13 102.864 13 94 C 13 80.478 23.978 69.5 37.5 69.5 C 51.022 69.5 62 80.478 62 94 C 62 102.864 57.282 110.636 50.223 114.937" fill="none" vector-effect="non-scaling-stroke" stroke-width="1" stroke="rgb(120,120,120)" stroke-linejoin="miter" stroke-linecap="square" stroke-miterlimit="3"/><line x1="37.5" y1="172" x2="37.5" y2="176" vector-effect="non-scaling-stroke" stroke-width="1.886" stroke="rgb(120,120,120)" stroke-linejoin="miter" stroke-linecap="square" stroke-miterlimit="3"/><line x1="37.5" y1="119" x2="37.5" y2="127" vector-effect="non-scaling-stroke" stroke-width="1" stroke="rgb(120,120,120)" stroke-linejoin="miter" stroke-linecap="square" stroke-miterlimit="3"/><line x1="37.5" y1="230" x2="37.5" y2="238" vector-effect="non-scaling-stroke" stroke-width="1" stroke="rgb(120,120,120)" stroke-linejoin="miter" stroke-linecap="square" stroke-miterlimit="3"/><g><line x1="8" y1="41.8" x2="20" y2="41.8" vector-effect="non-scaling-stroke" stroke-width="0.6" stroke="rgb(60,120,160)" stroke-linejoin="miter" stroke-linecap="square" stroke-miterlimit="3"/><line x1="55" y1="41.8" x2="67" y2="41.8" vector-effect="non-scaling-stroke" stroke-width="0.6" stroke="rgb(60,120,160)" stroke-linejoin="miter" stroke-linecap="square" stroke-miterlimit="3"/></g><line x1="55" y1="277" x2="55" y2="282" vector-effect="non-scaling-stroke" stroke-width="0.598" stroke="rgb(120,120,120)" stroke-linejoin="miter" stroke-linecap="square" stroke-miterlimit="3"/><line x1="20" y1="277" x2="20" y2="282" vector-effect="non-scaling-stroke" stroke-width="0.598" stroke="rgb(120,120,120)" stroke-linejoin="miter" stroke-linecap="square" stroke-miterlimit="3"/><g><path d=" M 53.207 323.977 L 53.207 323.977 L 53.207 323.977 Q 53.207 325.217 52.591 325.884 L 52.591 325.884 L 52.591 325.884 Q 51.976 326.55 50.828 326.55 L 50.828 326.55 L 50.828 326.55 Q 49.679 326.55 49.064 325.884 L 49.064 325.884 L 49.064 325.884 Q 48.449 325.217 48.449 323.97 L 48.449 323.97 L 48.449 323.97 Q 48.449 322.722 49.066 322.064 L 49.066 322.064 L 49.066 322.064 Q 49.683 321.406 50.834 321.406 L 50.834 321.406 L 50.834 321.406 Q 51.986 321.406 52.596 322.069 L 52.596 322.069 L 52.596 322.069 Q 53.207 322.732 53.207 323.977 Z  M 49.56 323.977 L 49.56 323.977 L 49.56 323.977 Q 49.56 324.814 49.877 325.238 L 49.877 325.238 L 49.877 325.238 Q 50.195 325.662 50.828 325.662 L 50.828 325.662 L 50.828 325.662 Q 52.096 325.662 52.096 323.977 L 52.096 323.977 L 52.096 323.977 Q 52.096 322.288 50.834 322.288 L 50.834 322.288 L 50.834 322.288 Q 50.202 322.288 49.881 322.714 L 49.881 322.714 L 49.881 322.714 Q 49.56 323.139 49.56 323.977 Z  M 57.253 321.485 L 58.31 321.485 L 58.31 324.718 L 58.31 324.718 Q 58.31 325.272 58.062 325.689 L 58.062 325.689 L 58.062 325.689 Q 57.814 326.106 57.346 326.328 L 57.346 326.328 L 57.346 326.328 Q 56.877 326.55 56.238 326.55 L 56.238 326.55 L 56.238 326.55 Q 55.274 326.55 54.741 326.056 L 54.741 326.056 L 54.741 326.056 Q 54.208 325.563 54.208 324.705 L 54.208 324.705 L 54.208 321.485 L 55.264 321.485 L 55.264 324.544 L 55.264 324.544 Q 55.264 325.122 55.497 325.392 L 55.497 325.392 L 55.497 325.392 Q 55.729 325.662 56.266 325.662 L 56.266 325.662 L 56.266 325.662 Q 56.785 325.662 57.019 325.39 L 57.019 325.39 L 57.019 325.39 Q 57.253 325.118 57.253 324.537 L 57.253 324.537 L 57.253 321.485 L 57.253 321.485 Z  M 61.461 322.367 L 61.461 326.482 L 60.401 326.482 L 60.401 322.367 L 59.044 322.367 L 59.044 321.485 L 62.818 321.485 L 62.818 322.367 L 61.461 322.367 L 61.461 322.367 Z " fill="rgb(235,235,235)"/><path d=" M 17.684 326.482 L 16.625 326.482 L 16.625 321.485 L 17.684 321.485 L 17.684 326.482 L 17.684 326.482 Z  M 23.375 321.485 L 23.375 326.482 L 22.029 326.482 L 19.855 322.702 L 19.824 322.702 L 19.824 322.702 Q 19.889 323.703 19.889 324.13 L 19.889 324.13 L 19.889 326.482 L 18.942 326.482 L 18.942 321.485 L 20.279 321.485 L 22.449 325.228 L 22.473 325.228 L 22.473 325.228 Q 22.422 324.253 22.422 323.85 L 22.422 323.85 L 22.422 321.485 L 23.375 321.485 L 23.375 321.485 Z " fill="rgb(13,13,13)"/><path d=" M 12.821 291.436 L 12.821 291.436 L 12.821 291.436 Q 12.821 292.669 12.119 293.326 L 12.119 293.326 L 12.119 293.326 Q 11.417 293.982 10.09 293.982 L 10.09 293.982 L 8.675 293.982 L 8.675 288.985 L 10.244 288.985 L 10.244 288.985 Q 11.468 288.985 12.145 289.631 L 12.145 289.631 L 12.145 289.631 Q 12.821 290.277 12.821 291.436 Z  M 11.721 291.463 L 11.721 291.463 L 11.721 291.463 Q 11.721 289.853 10.299 289.853 L 10.299 289.853 L 9.735 289.853 L 9.735 293.107 L 10.189 293.107 L 10.189 293.107 Q 11.721 293.107 11.721 291.463 Z  M 16.735 293.107 L 16.735 293.982 L 13.857 293.982 L 13.857 288.985 L 16.735 288.985 L 16.735 289.853 L 14.917 289.853 L 14.917 290.95 L 16.608 290.95 L 16.608 291.818 L 14.917 291.818 L 14.917 293.107 L 16.735 293.107 L 16.735 293.107 Z  M 18.837 289.853 L 18.837 291.336 L 19.186 291.336 L 19.186 291.336 Q 19.674 291.336 19.917 291.143 L 19.917 291.143 L 19.917 291.143 Q 20.16 290.95 20.16 290.581 L 20.16 290.581 L 20.16 290.581 Q 20.16 290.208 19.956 290.031 L 19.956 290.031 L 19.956 290.031 Q 19.753 289.853 19.319 289.853 L 19.319 289.853 L 18.837 289.853 L 18.837 289.853 Z  M 21.229 290.543 L 21.229 290.543 L 21.229 290.543 Q 21.229 291.35 20.725 291.777 L 20.725 291.777 L 20.725 291.777 Q 20.221 292.205 19.292 292.205 L 19.292 292.205 L 18.837 292.205 L 18.837 293.982 L 17.777 293.982 L 17.777 288.985 L 19.374 288.985 L 19.374 288.985 Q 20.283 288.985 20.756 289.376 L 20.756 289.376 L 20.756 289.376 Q 21.229 289.768 21.229 290.543 Z  M 24.101 289.867 L 24.101 293.982 L 23.041 293.982 L 23.041 289.867 L 21.684 289.867 L 21.684 288.985 L 25.458 288.985 L 25.458 289.867 L 24.101 289.867 L 24.101 289.867 Z  M 30.321 288.985 L 30.321 293.982 L 29.265 293.982 L 29.265 291.825 L 27.286 291.825 L 27.286 293.982 L 26.227 293.982 L 26.227 288.985 L 27.286 288.985 L 27.286 290.943 L 29.265 290.943 L 29.265 288.985 L 30.321 288.985 L 30.321 288.985 Z " fill="rgb(239,239,239)"/><path d=" M 48.676 291.447 L 48.676 291.447 L 48.676 291.447 Q 48.676 292.51 48.149 293.081 L 48.149 293.081 L 48.149 293.081 Q 47.622 293.653 46.637 293.653 L 46.637 293.653 L 46.637 293.653 Q 45.653 293.653 45.125 293.081 L 45.125 293.081 L 45.125 293.081 Q 44.598 292.51 44.598 291.441 L 44.598 291.441 L 44.598 291.441 Q 44.598 290.371 45.127 289.807 L 45.127 289.807 L 45.127 289.807 Q 45.656 289.243 46.643 289.243 L 46.643 289.243 L 46.643 289.243 Q 47.63 289.243 48.153 289.812 L 48.153 289.812 L 48.153 289.812 Q 48.676 290.38 48.676 291.447 Z  M 45.55 291.447 L 45.55 291.447 L 45.55 291.447 Q 45.55 292.164 45.823 292.528 L 45.823 292.528 L 45.823 292.528 Q 46.095 292.891 46.637 292.891 L 46.637 292.891 L 46.637 292.891 Q 47.724 292.891 47.724 291.447 L 47.724 291.447 L 47.724 291.447 Q 47.724 289.999 46.643 289.999 L 46.643 289.999 L 46.643 289.999 Q 46.101 289.999 45.826 290.364 L 45.826 290.364 L 45.826 290.364 Q 45.55 290.729 45.55 291.447 Z  M 50.458 291.901 L 50.458 293.594 L 49.564 293.594 L 49.564 289.311 L 52.019 289.311 L 52.019 290.055 L 50.458 290.055 L 50.458 291.159 L 51.911 291.159 L 51.911 291.901 L 50.458 291.901 L 50.458 291.901 Z  M 53.75 291.901 L 53.75 293.594 L 52.857 293.594 L 52.857 289.311 L 55.312 289.311 L 55.312 290.055 L 53.75 290.055 L 53.75 291.159 L 55.204 291.159 L 55.204 291.901 L 53.75 291.901 L 53.75 291.901 Z  M 58.678 292.405 L 58.678 292.405 L 58.678 292.405 Q 58.678 292.985 58.261 293.319 L 58.261 293.319 L 58.261 293.319 Q 57.843 293.653 57.099 293.653 L 57.099 293.653 L 57.099 293.653 Q 56.414 293.653 55.886 293.395 L 55.886 293.395 L 55.886 292.551 L 55.886 292.551 Q 56.32 292.744 56.62 292.823 L 56.62 292.823 L 56.62 292.823 Q 56.92 292.903 57.169 292.903 L 57.169 292.903 L 57.169 292.903 Q 57.468 292.903 57.628 292.788 L 57.628 292.788 L 57.628 292.788 Q 57.788 292.674 57.788 292.448 L 57.788 292.448 L 57.788 292.448 Q 57.788 292.323 57.717 292.224 L 57.717 292.224 L 57.717 292.224 Q 57.647 292.126 57.511 292.035 L 57.511 292.035 L 57.511 292.035 Q 57.375 291.945 56.956 291.745 L 56.956 291.745 L 56.956 291.745 Q 56.563 291.561 56.367 291.391 L 56.367 291.391 L 56.367 291.391 Q 56.17 291.221 56.053 290.995 L 56.053 290.995 L 56.053 290.995 Q 55.936 290.77 55.936 290.468 L 55.936 290.468 L 55.936 290.468 Q 55.936 289.9 56.321 289.574 L 56.321 289.574 L 56.321 289.574 Q 56.707 289.249 57.386 289.249 L 57.386 289.249 L 57.386 289.249 Q 57.72 289.249 58.023 289.328 L 58.023 289.328 L 58.023 289.328 Q 58.327 289.407 58.658 289.551 L 58.658 289.551 L 58.365 290.257 L 58.365 290.257 Q 58.022 290.116 57.798 290.061 L 57.798 290.061 L 57.798 290.061 Q 57.574 290.005 57.357 290.005 L 57.357 290.005 L 57.357 290.005 Q 57.099 290.005 56.961 290.125 L 56.961 290.125 L 56.961 290.125 Q 56.824 290.245 56.824 290.439 L 56.824 290.439 L 56.824 290.439 Q 56.824 290.559 56.879 290.648 L 56.879 290.648 L 56.879 290.648 Q 56.935 290.738 57.057 290.821 L 57.057 290.821 L 57.057 290.821 Q 57.178 290.905 57.632 291.121 L 57.632 291.121 L 57.632 291.121 Q 58.233 291.408 58.456 291.697 L 58.456 291.697 L 58.456 291.697 Q 58.678 291.986 58.678 292.405 Z  M 61.921 292.844 L 61.921 293.594 L 59.455 293.594 L 59.455 289.311 L 61.921 289.311 L 61.921 290.055 L 60.363 290.055 L 60.363 290.995 L 61.813 290.995 L 61.813 291.74 L 60.363 291.74 L 60.363 292.844 L 61.921 292.844 L 61.921 292.844 Z  M 64.467 290.067 L 64.467 293.594 L 63.559 293.594 L 63.559 290.067 L 62.396 290.067 L 62.396 289.311 L 65.63 289.311 L 65.63 290.067 L 64.467 290.067 L 64.467 290.067 Z " fill="rgb(13,13,13)"/><path d=" M 28.937 165.109 L 28.937 165.109 L 28.937 165.109 Q 28.937 166.853 28.065 167.819 L 28.065 167.819 L 28.065 167.819 Q 27.193 168.786 25.597 168.786 L 25.597 168.786 L 25.597 168.786 Q 23.98 168.786 23.114 167.827 L 23.114 167.827 L 23.114 167.827 Q 22.247 166.867 22.247 165.1 L 22.247 165.1 L 22.247 165.1 Q 22.247 163.332 23.119 162.385 L 23.119 162.385 L 23.119 162.385 Q 23.99 161.438 25.606 161.438 L 25.606 161.438 L 25.606 161.438 Q 27.198 161.438 28.067 162.399 L 28.067 162.399 L 28.067 162.399 Q 28.937 163.361 28.937 165.109 Z  M 23.487 165.109 L 23.487 165.109 L 23.487 165.109 Q 23.487 166.428 24.02 167.109 L 24.02 167.109 L 24.02 167.109 Q 24.552 167.79 25.597 167.79 L 25.597 167.79 L 25.597 167.79 Q 26.637 167.79 27.167 167.116 L 27.167 167.116 L 27.167 167.116 Q 27.696 166.442 27.696 165.109 L 27.696 165.109 L 27.696 165.109 Q 27.696 163.796 27.171 163.117 L 27.171 163.117 L 27.171 163.117 Q 26.646 162.438 25.606 162.438 L 25.606 162.438 L 25.606 162.438 Q 24.557 162.438 24.022 163.117 L 24.022 163.117 L 24.022 163.117 Q 23.487 163.796 23.487 165.109 Z  M 33.058 163.288 L 33.058 164.157 L 31.739 164.157 L 31.739 168.688 L 30.587 168.688 L 30.587 164.157 L 29.698 164.157 L 29.698 163.62 L 30.587 163.269 L 30.587 162.917 L 30.587 162.917 Q 30.587 161.96 31.036 161.499 L 31.036 161.499 L 31.036 161.499 Q 31.485 161.037 32.408 161.037 L 32.408 161.037 L 32.408 161.037 Q 33.014 161.037 33.6 161.237 L 33.6 161.237 L 33.297 162.106 L 33.297 162.106 Q 32.872 161.97 32.486 161.97 L 32.486 161.97 L 32.486 161.97 Q 32.096 161.97 31.917 162.211 L 31.917 162.211 L 31.917 162.211 Q 31.739 162.453 31.739 162.937 L 31.739 162.937 L 31.739 163.288 L 33.058 163.288 L 33.058 163.288 Z  M 36.686 163.288 L 36.686 164.157 L 35.367 164.157 L 35.367 168.688 L 34.215 168.688 L 34.215 164.157 L 33.326 164.157 L 33.326 163.62 L 34.215 163.269 L 34.215 162.917 L 34.215 162.917 Q 34.215 161.96 34.664 161.499 L 34.664 161.499 L 34.664 161.499 Q 35.113 161.037 36.036 161.037 L 36.036 161.037 L 36.036 161.037 Q 36.642 161.037 37.228 161.237 L 37.228 161.237 L 36.925 162.106 L 36.925 162.106 Q 36.5 161.97 36.114 161.97 L 36.114 161.97 L 36.114 161.97 Q 35.724 161.97 35.545 162.211 L 35.545 162.211 L 35.545 162.211 Q 35.367 162.453 35.367 162.937 L 35.367 162.937 L 35.367 163.288 L 36.686 163.288 L 36.686 163.288 Z  M 41.231 167.15 L 41.231 167.15 L 41.231 167.15 Q 41.231 167.941 40.655 168.364 L 40.655 168.364 L 40.655 168.364 Q 40.079 168.786 39.005 168.786 L 39.005 168.786 L 39.005 168.786 Q 37.926 168.786 37.271 168.459 L 37.271 168.459 L 37.271 167.468 L 37.271 167.468 Q 38.224 167.907 39.044 167.907 L 39.044 167.907 L 39.044 167.907 Q 40.104 167.907 40.104 167.268 L 40.104 167.268 L 40.104 167.268 Q 40.104 167.063 39.986 166.926 L 39.986 166.926 L 39.986 166.926 Q 39.869 166.789 39.601 166.643 L 39.601 166.643 L 39.601 166.643 Q 39.332 166.496 38.854 166.311 L 38.854 166.311 L 38.854 166.311 Q 37.921 165.949 37.591 165.588 L 37.591 165.588 L 37.591 165.588 Q 37.262 165.227 37.262 164.65 L 37.262 164.65 L 37.262 164.65 Q 37.262 163.957 37.821 163.574 L 37.821 163.574 L 37.821 163.574 Q 38.38 163.19 39.342 163.19 L 39.342 163.19 L 39.342 163.19 Q 40.294 163.19 41.144 163.576 L 41.144 163.576 L 40.772 164.44 L 40.772 164.44 Q 39.898 164.079 39.303 164.079 L 39.303 164.079 L 39.303 164.079 Q 38.395 164.079 38.395 164.597 L 38.395 164.597 L 38.395 164.597 Q 38.395 164.851 38.631 165.026 L 38.631 165.026 L 38.631 165.026 Q 38.868 165.202 39.664 165.51 L 39.664 165.51 L 39.664 165.51 Q 40.333 165.769 40.636 165.983 L 40.636 165.983 L 40.636 165.983 Q 40.938 166.198 41.085 166.479 L 41.085 166.479 L 41.085 166.479 Q 41.231 166.76 41.231 167.15 Z  M 44.83 168.786 L 44.83 168.786 L 44.83 168.786 Q 43.57 168.786 42.86 168.051 L 42.86 168.051 L 42.86 168.051 Q 42.149 167.316 42.149 166.027 L 42.149 166.027 L 42.149 166.027 Q 42.149 164.704 42.809 163.947 L 42.809 163.947 L 42.809 163.947 Q 43.468 163.19 44.62 163.19 L 44.62 163.19 L 44.62 163.19 Q 45.689 163.19 46.31 163.84 L 46.31 163.84 L 46.31 163.84 Q 46.93 164.489 46.93 165.627 L 46.93 165.627 L 46.93 166.247 L 43.331 166.247 L 43.331 166.247 Q 43.355 167.033 43.756 167.456 L 43.756 167.456 L 43.756 167.456 Q 44.156 167.878 44.884 167.878 L 44.884 167.878 L 44.884 167.878 Q 45.362 167.878 45.775 167.788 L 45.775 167.788 L 45.775 167.788 Q 46.187 167.697 46.661 167.487 L 46.661 167.487 L 46.661 168.42 L 46.661 168.42 Q 46.241 168.62 45.812 168.703 L 45.812 168.703 L 45.812 168.703 Q 45.382 168.786 44.83 168.786 Z  M 44.62 164.06 L 44.62 164.06 L 44.62 164.06 Q 44.073 164.06 43.744 164.406 L 43.744 164.406 L 43.744 164.406 Q 43.414 164.753 43.351 165.417 L 43.351 165.417 L 45.802 165.417 L 45.802 165.417 Q 45.792 164.748 45.479 164.404 L 45.479 164.404 L 45.479 164.404 Q 45.167 164.06 44.62 164.06 Z  M 50.245 167.858 L 50.245 167.858 L 50.245 167.858 Q 50.665 167.858 51.085 167.727 L 51.085 167.727 L 51.085 168.591 L 51.085 168.591 Q 50.895 168.674 50.594 168.73 L 50.594 168.73 L 50.594 168.73 Q 50.294 168.786 49.972 168.786 L 49.972 168.786 L 49.972 168.786 Q 48.341 168.786 48.341 167.067 L 48.341 167.067 L 48.341 164.157 L 47.604 164.157 L 47.604 163.649 L 48.395 163.229 L 48.785 162.087 L 49.493 162.087 L 49.493 163.288 L 51.031 163.288 L 51.031 164.157 L 49.493 164.157 L 49.493 167.048 L 49.493 167.048 Q 49.493 167.463 49.701 167.661 L 49.701 167.661 L 49.701 167.661 Q 49.908 167.858 50.245 167.858 Z " fill="rgb(13,13,13)"/><path d=" M 28.443 61.051 L 28.443 61.051 L 28.443 61.051 Q 28.443 62.818 27.462 63.753 L 27.462 63.753 L 27.462 63.753 Q 26.48 64.688 24.635 64.688 L 24.635 64.688 L 22.638 64.688 L 22.638 57.55 L 24.845 57.55 L 24.845 57.55 Q 26.549 57.55 27.496 58.468 L 27.496 58.468 L 27.496 58.468 Q 28.443 59.386 28.443 61.051 Z  M 27.213 61.09 L 27.213 61.09 L 27.213 61.09 Q 27.213 58.526 24.815 58.526 L 24.815 58.526 L 23.805 58.526 L 23.805 63.707 L 24.635 63.707 L 24.635 63.707 Q 27.213 63.707 27.213 61.09 Z  M 32.213 64.786 L 32.213 64.786 L 32.213 64.786 Q 30.953 64.786 30.243 64.051 L 30.243 64.051 L 30.243 64.051 Q 29.532 63.316 29.532 62.027 L 29.532 62.027 L 29.532 62.027 Q 29.532 60.704 30.191 59.947 L 30.191 59.947 L 30.191 59.947 Q 30.851 59.19 32.003 59.19 L 32.003 59.19 L 32.003 59.19 Q 33.072 59.19 33.692 59.84 L 33.692 59.84 L 33.692 59.84 Q 34.313 60.489 34.313 61.627 L 34.313 61.627 L 34.313 62.247 L 30.714 62.247 L 30.714 62.247 Q 30.738 63.033 31.139 63.456 L 31.139 63.456 L 31.139 63.456 Q 31.539 63.878 32.267 63.878 L 32.267 63.878 L 32.267 63.878 Q 32.745 63.878 33.158 63.788 L 33.158 63.788 L 33.158 63.788 Q 33.57 63.697 34.044 63.487 L 34.044 63.487 L 34.044 64.42 L 34.044 64.42 Q 33.624 64.62 33.194 64.703 L 33.194 64.703 L 33.194 64.703 Q 32.765 64.786 32.213 64.786 Z  M 32.003 60.06 L 32.003 60.06 L 32.003 60.06 Q 31.456 60.06 31.126 60.406 L 31.126 60.406 L 31.126 60.406 Q 30.797 60.753 30.733 61.417 L 30.733 61.417 L 33.185 61.417 L 33.185 61.417 Q 33.175 60.748 32.862 60.404 L 32.862 60.404 L 32.862 60.404 Q 32.55 60.06 32.003 60.06 Z  M 38.355 64.786 L 38.355 64.786 L 38.355 64.786 Q 37.33 64.786 36.764 64.049 L 36.764 64.049 L 36.695 64.049 L 36.695 64.049 Q 36.764 64.732 36.764 64.879 L 36.764 64.879 L 36.764 67.091 L 35.616 67.091 L 35.616 59.288 L 36.544 59.288 L 36.544 59.288 Q 36.583 59.439 36.705 60.011 L 36.705 60.011 L 36.764 60.011 L 36.764 60.011 Q 37.301 59.19 38.375 59.19 L 38.375 59.19 L 38.375 59.19 Q 39.386 59.19 39.95 59.923 L 39.95 59.923 L 39.95 59.923 Q 40.514 60.655 40.514 61.979 L 40.514 61.979 L 40.514 61.979 Q 40.514 63.302 39.94 64.044 L 39.94 64.044 L 39.94 64.044 Q 39.366 64.786 38.355 64.786 Z  M 38.077 60.128 L 38.077 60.128 L 38.077 60.128 Q 37.394 60.128 37.079 60.528 L 37.079 60.528 L 37.079 60.528 Q 36.764 60.929 36.764 61.808 L 36.764 61.808 L 36.764 61.979 L 36.764 61.979 Q 36.764 62.965 37.076 63.407 L 37.076 63.407 L 37.076 63.407 Q 37.389 63.849 38.097 63.849 L 38.097 63.849 L 38.097 63.849 Q 38.692 63.849 39.015 63.36 L 39.015 63.36 L 39.015 63.36 Q 39.337 62.872 39.337 61.969 L 39.337 61.969 L 39.337 61.969 Q 39.337 61.061 39.017 60.594 L 39.017 60.594 L 39.017 60.594 Q 38.697 60.128 38.077 60.128 Z  M 43.858 63.858 L 43.858 63.858 L 43.858 63.858 Q 44.278 63.858 44.698 63.727 L 44.698 63.727 L 44.698 64.591 L 44.698 64.591 Q 44.508 64.674 44.208 64.73 L 44.208 64.73 L 44.208 64.73 Q 43.907 64.786 43.585 64.786 L 43.585 64.786 L 43.585 64.786 Q 41.954 64.786 41.954 63.067 L 41.954 63.067 L 41.954 60.157 L 41.217 60.157 L 41.217 59.649 L 42.008 59.229 L 42.398 58.087 L 43.106 58.087 L 43.106 59.288 L 44.645 59.288 L 44.645 60.157 L 43.106 60.157 L 43.106 63.048 L 43.106 63.048 Q 43.106 63.463 43.314 63.661 L 43.314 63.661 L 43.314 63.661 Q 43.521 63.858 43.858 63.858 Z  M 50.528 61.168 L 50.528 64.688 L 49.376 64.688 L 49.376 61.368 L 49.376 61.368 Q 49.376 60.743 49.125 60.436 L 49.125 60.436 L 49.125 60.436 Q 48.873 60.128 48.326 60.128 L 48.326 60.128 L 48.326 60.128 Q 47.604 60.128 47.264 60.56 L 47.264 60.56 L 47.264 60.56 Q 46.925 60.992 46.925 62.008 L 46.925 62.008 L 46.925 64.688 L 45.777 64.688 L 45.777 57.091 L 46.925 57.091 L 46.925 59.02 L 46.925 59.02 Q 46.925 59.483 46.866 60.011 L 46.866 60.011 L 46.939 60.011 L 46.939 60.011 Q 47.174 59.62 47.591 59.405 L 47.591 59.405 L 47.591 59.405 Q 48.009 59.19 48.565 59.19 L 48.565 59.19 L 48.565 59.19 Q 50.528 59.19 50.528 61.168 L 50.528 61.168 L 50.528 61.168 Z " fill="rgb(13,13,13)"/><path d=" M 14.41 24.63 L 14.41 28.581 L 12.325 28.581 L 12.325 18.587 L 18.053 18.587 L 18.053 20.323 L 14.41 20.323 L 14.41 22.9 L 17.8 22.9 L 17.8 24.63 L 14.41 24.63 L 14.41 24.63 Z  M 21.505 24.746 L 21.505 24.746 L 21.505 24.746 Q 21.505 25.881 21.878 26.462 L 21.878 26.462 L 21.878 26.462 Q 22.25 27.043 23.091 27.043 L 23.091 27.043 L 23.091 27.043 Q 23.925 27.043 24.291 26.465 L 24.291 26.465 L 24.291 26.465 Q 24.657 25.888 24.657 24.746 L 24.657 24.746 L 24.657 24.746 Q 24.657 23.611 24.288 23.044 L 24.288 23.044 L 24.288 23.044 Q 23.918 22.477 23.078 22.477 L 23.078 22.477 L 23.078 22.477 Q 22.244 22.477 21.875 23.041 L 21.875 23.041 L 21.875 23.041 Q 21.505 23.605 21.505 24.746 Z  M 26.79 24.746 L 26.79 24.746 L 26.79 24.746 Q 26.79 26.612 25.805 27.665 L 25.805 27.665 L 25.805 27.665 Q 24.821 28.718 23.064 28.718 L 23.064 28.718 L 23.064 28.718 Q 21.963 28.718 21.123 28.236 L 21.123 28.236 L 21.123 28.236 Q 20.282 27.754 19.831 26.852 L 19.831 26.852 L 19.831 26.852 Q 19.379 25.949 19.379 24.746 L 19.379 24.746 L 19.379 24.746 Q 19.379 22.873 20.357 21.834 L 20.357 21.834 L 20.357 21.834 Q 21.334 20.795 23.105 20.795 L 23.105 20.795 L 23.105 20.795 Q 24.206 20.795 25.046 21.274 L 25.046 21.274 L 25.046 21.274 Q 25.887 21.752 26.338 22.648 L 26.338 22.648 L 26.338 22.648 Q 26.79 23.543 26.79 24.746 Z  M 30.597 17.944 L 30.597 28.581 L 28.512 28.581 L 28.512 17.944 L 30.597 17.944 L 30.597 17.944 Z  M 35.205 28.718 L 35.205 28.718 L 35.205 28.718 Q 33.858 28.718 33.089 27.672 L 33.089 27.672 L 33.089 27.672 Q 32.32 26.626 32.32 24.774 L 32.32 24.774 L 32.32 24.774 Q 32.32 22.894 33.103 21.844 L 33.103 21.844 L 33.103 21.844 Q 33.885 20.795 35.259 20.795 L 35.259 20.795 L 35.259 20.795 Q 36.702 20.795 37.46 21.916 L 37.46 21.916 L 37.529 21.916 L 37.529 21.916 Q 37.372 21.062 37.372 20.392 L 37.372 20.392 L 37.372 17.944 L 39.463 17.944 L 39.463 28.581 L 37.864 28.581 L 37.46 27.59 L 37.372 27.59 L 37.372 27.59 Q 36.661 28.718 35.205 28.718 Z  M 35.936 27.057 L 35.936 27.057 L 35.936 27.057 Q 36.736 27.057 37.108 26.592 L 37.108 26.592 L 37.108 26.592 Q 37.481 26.127 37.515 25.013 L 37.515 25.013 L 37.515 24.787 L 37.515 24.787 Q 37.515 23.557 37.136 23.024 L 37.136 23.024 L 37.136 23.024 Q 36.756 22.49 35.902 22.49 L 35.902 22.49 L 35.902 22.49 Q 35.205 22.49 34.818 23.082 L 34.818 23.082 L 34.818 23.082 Q 34.432 23.673 34.432 24.801 L 34.432 24.801 L 34.432 24.801 Q 34.432 25.929 34.822 26.493 L 34.822 26.493 L 34.822 26.493 Q 35.211 27.057 35.936 27.057 Z  M 41.555 18.963 L 41.555 18.963 L 41.555 18.963 Q 41.555 17.944 42.69 17.944 L 42.69 17.944 L 42.69 17.944 Q 43.825 17.944 43.825 18.963 L 43.825 18.963 L 43.825 18.963 Q 43.825 19.448 43.541 19.718 L 43.541 19.718 L 43.541 19.718 Q 43.257 19.988 42.69 19.988 L 42.69 19.988 L 42.69 19.988 Q 41.555 19.988 41.555 18.963 Z  M 43.729 20.939 L 43.729 28.581 L 41.644 28.581 L 41.644 20.939 L 43.729 20.939 L 43.729 20.939 Z  M 52.971 23.598 L 52.971 28.581 L 50.886 28.581 L 50.886 24.117 L 50.886 24.117 Q 50.886 23.29 50.592 22.877 L 50.592 22.877 L 50.592 22.877 Q 50.298 22.463 49.656 22.463 L 49.656 22.463 L 49.656 22.463 Q 48.781 22.463 48.391 23.047 L 48.391 23.047 L 48.391 23.047 Q 48.001 23.632 48.001 24.985 L 48.001 24.985 L 48.001 28.581 L 45.917 28.581 L 45.917 20.939 L 47.509 20.939 L 47.79 21.916 L 47.906 21.916 L 47.906 21.916 Q 48.254 21.362 48.866 21.079 L 48.866 21.079 L 48.866 21.079 Q 49.478 20.795 50.257 20.795 L 50.257 20.795 L 50.257 20.795 Q 51.59 20.795 52.281 21.516 L 52.281 21.516 L 52.281 21.516 Q 52.971 22.237 52.971 23.598 L 52.971 23.598 L 52.971 23.598 Z  M 59.103 20.939 L 61.769 20.939 L 61.769 21.998 L 60.573 22.306 L 60.573 22.306 Q 60.901 22.818 60.901 23.454 L 60.901 23.454 L 60.901 23.454 Q 60.901 24.685 60.043 25.372 L 60.043 25.372 L 60.043 25.372 Q 59.185 26.059 57.661 26.059 L 57.661 26.059 L 57.285 26.038 L 56.977 26.004 L 56.977 26.004 Q 56.656 26.25 56.656 26.551 L 56.656 26.551 L 56.656 26.551 Q 56.656 27.002 57.804 27.002 L 57.804 27.002 L 59.103 27.002 L 59.103 27.002 Q 60.361 27.002 61.021 27.542 L 61.021 27.542 L 61.021 27.542 Q 61.68 28.082 61.68 29.128 L 61.68 29.128 L 61.68 29.128 Q 61.68 30.468 60.563 31.206 L 60.563 31.206 L 60.563 31.206 Q 59.445 31.944 57.353 31.944 L 57.353 31.944 L 57.353 31.944 Q 55.753 31.944 54.909 31.387 L 54.909 31.387 L 54.909 31.387 Q 54.065 30.83 54.065 29.825 L 54.065 29.825 L 54.065 29.825 Q 54.065 29.135 54.496 28.67 L 54.496 28.67 L 54.496 28.67 Q 54.926 28.205 55.76 28.007 L 55.76 28.007 L 55.76 28.007 Q 55.439 27.87 55.2 27.559 L 55.2 27.559 L 55.2 27.559 Q 54.96 27.248 54.96 26.9 L 54.96 26.9 L 54.96 26.9 Q 54.96 26.462 55.213 26.171 L 55.213 26.171 L 55.213 26.171 Q 55.466 25.881 55.945 25.601 L 55.945 25.601 L 55.945 25.601 Q 55.343 25.341 54.991 24.767 L 54.991 24.767 L 54.991 24.767 Q 54.639 24.192 54.639 23.413 L 54.639 23.413 L 54.639 23.413 Q 54.639 22.162 55.453 21.479 L 55.453 21.479 L 55.453 21.479 Q 56.266 20.795 57.777 20.795 L 57.777 20.795 L 57.777 20.795 Q 58.098 20.795 58.539 20.853 L 58.539 20.853 L 58.539 20.853 Q 58.98 20.911 59.103 20.939 L 59.103 20.939 L 59.103 20.939 Z  M 55.87 29.661 L 55.87 29.661 L 55.87 29.661 Q 55.87 30.092 56.283 30.338 L 56.283 30.338 L 56.283 30.338 Q 56.697 30.584 57.442 30.584 L 57.442 30.584 L 57.442 30.584 Q 58.563 30.584 59.199 30.276 L 59.199 30.276 L 59.199 30.276 Q 59.834 29.969 59.834 29.436 L 59.834 29.436 L 59.834 29.436 Q 59.834 29.005 59.458 28.841 L 59.458 28.841 L 59.458 28.841 Q 59.083 28.677 58.296 28.677 L 58.296 28.677 L 57.216 28.677 L 57.216 28.677 Q 56.642 28.677 56.256 28.947 L 56.256 28.947 L 56.256 28.947 Q 55.87 29.217 55.87 29.661 Z  M 56.628 23.441 L 56.628 23.441 L 56.628 23.441 Q 56.628 24.063 56.912 24.425 L 56.912 24.425 L 56.912 24.425 Q 57.196 24.787 57.777 24.787 L 57.777 24.787 L 57.777 24.787 Q 58.365 24.787 58.638 24.425 L 58.638 24.425 L 58.638 24.425 Q 58.912 24.063 58.912 23.441 L 58.912 23.441 L 58.912 23.441 Q 58.912 22.06 57.777 22.06 L 57.777 22.06 L 57.777 22.06 Q 56.628 22.06 56.628 23.441 Z " fill="rgb(13,13,13)"/><path d=" M 21.845 361.965 L 20.181 361.965 L 21.005 359.477 L 21.021 359.477 L 21.845 361.965 Z  M 22.091 362.73 L 22.533 364.004 L 23.443 364.004 L 21.373 358.309 L 20.65 358.309 L 18.58 364.004 L 19.494 364.004 L 19.931 362.73 L 22.091 362.73 Z  M 23.978 359.949 L 23.978 364.004 L 24.795 364.004 L 24.795 361.59 L 24.795 361.59 Q 24.795 361.164 25.025 360.941 L 25.025 360.941 L 25.025 360.941 Q 25.252 360.715 25.603 360.715 L 25.603 360.715 L 25.603 360.715 Q 25.955 360.715 26.177 360.941 L 26.177 360.941 L 26.177 360.941 Q 26.404 361.164 26.404 361.59 L 26.404 361.59 L 26.404 364.004 L 27.22 364.004 L 27.22 361.309 L 27.22 361.309 Q 27.201 360.613 26.787 360.254 L 26.787 360.254 L 26.787 360.254 Q 26.369 359.898 25.865 359.898 L 25.865 359.898 L 25.865 359.898 Q 25.213 359.898 24.81 360.379 L 24.81 360.379 L 24.795 360.379 L 24.795 359.949 L 23.978 359.949 Z  M 28.298 359.949 L 28.298 364.004 L 29.115 364.004 L 29.115 359.949 L 28.298 359.949 Z  M 28.298 358.309 L 28.298 359.125 L 29.115 359.125 L 29.115 358.309 L 28.298 358.309 Z  M 30.24 359.949 L 30.24 364.004 L 31.056 364.004 L 31.056 361.59 L 31.056 361.59 Q 31.056 361.164 31.291 360.941 L 31.291 360.941 L 31.291 360.941 Q 31.513 360.715 31.865 360.715 L 31.865 360.715 L 31.865 360.715 Q 32.216 360.715 32.443 360.941 L 32.443 360.941 L 32.443 360.941 Q 32.666 361.164 32.666 361.59 L 32.666 361.59 L 32.666 364.004 L 33.482 364.004 L 33.482 361.59 L 33.482 361.59 Q 33.482 361.164 33.713 360.941 L 33.713 360.941 L 33.713 360.941 Q 33.939 360.715 34.291 360.715 L 34.291 360.715 L 34.291 360.715 Q 34.642 360.715 34.865 360.941 L 34.865 360.941 L 34.865 360.941 Q 35.088 361.164 35.088 361.59 L 35.088 361.59 L 35.088 364.004 L 35.904 364.004 L 35.904 361.309 L 35.904 361.309 Q 35.888 360.613 35.474 360.254 L 35.474 360.254 L 35.474 360.254 Q 35.056 359.898 34.552 359.898 L 34.552 359.898 L 34.552 359.898 Q 33.752 359.891 33.275 360.43 L 33.275 360.43 L 33.275 360.43 L 33.275 360.43 Q 33.064 360.195 32.81 360.043 L 32.81 360.043 L 32.81 360.043 Q 32.552 359.906 32.13 359.898 L 32.13 359.898 L 32.13 359.898 Q 31.474 359.898 31.072 360.379 L 31.072 360.379 L 31.056 360.379 L 31.056 359.949 L 30.24 359.949 Z  M 39.138 363.645 L 39.138 364.004 L 39.955 364.004 L 39.955 361.234 L 39.955 361.234 Q 39.947 360.492 39.49 360.188 L 39.49 360.188 L 39.49 360.188 Q 39.033 359.891 38.267 359.898 L 38.267 359.898 L 38.267 359.898 Q 37.361 359.883 36.896 360.492 L 36.896 360.492 L 37.537 360.98 L 37.537 360.98 L 37.537 360.98 Q 37.642 360.805 37.826 360.73 L 37.826 360.73 L 37.826 360.73 Q 38.002 360.668 38.306 360.668 L 38.306 360.668 L 38.306 360.668 Q 39.146 360.652 39.138 361.188 L 39.138 361.188 L 39.138 361.613 L 38.009 361.613 L 38.009 361.613 Q 37.361 361.621 37.025 361.965 L 37.025 361.965 L 37.025 361.965 Q 36.689 362.301 36.689 362.813 L 36.689 362.813 L 36.689 362.813 Q 36.689 363.348 37.076 363.691 L 37.076 363.691 L 37.076 363.691 Q 37.443 364.043 38.123 364.051 L 38.123 364.051 L 38.123 364.051 Q 38.537 364.051 38.771 363.949 L 38.771 363.949 L 38.771 363.949 Q 39.009 363.852 39.123 363.645 L 39.123 363.645 L 39.138 363.645 Z  M 39.138 362.285 L 39.138 362.578 L 39.138 362.578 Q 39.138 363.035 38.947 363.164 L 38.947 363.164 L 38.947 363.164 Q 38.736 363.293 38.224 363.285 L 38.224 363.285 L 38.224 363.285 Q 37.818 363.285 37.642 363.125 L 37.642 363.125 L 37.642 363.125 Q 37.459 362.98 37.459 362.773 L 37.459 362.773 L 37.459 362.773 Q 37.451 362.301 38.162 362.285 L 38.162 362.285 L 39.138 362.285 Z  M 41.056 358.715 L 41.056 359.949 L 40.65 359.949 L 40.65 360.57 L 41.056 360.57 L 41.056 363.004 L 41.056 363.004 Q 41.056 363.484 41.338 363.738 L 41.338 363.738 L 41.338 363.738 Q 41.611 364.004 42.041 364.004 L 42.041 364.004 L 42.466 364.004 L 42.466 363.234 L 42.162 363.234 L 42.162 363.234 Q 41.865 363.242 41.873 362.934 L 41.873 362.934 L 41.873 360.57 L 42.466 360.57 L 42.466 359.949 L 41.873 359.949 L 41.873 358.715 L 41.056 358.715 Z  M 43.849 362.285 L 46.377 362.285 L 46.377 361.613 L 46.377 361.613 Q 46.369 360.813 45.88 360.355 L 45.88 360.355 L 45.88 360.355 Q 45.4 359.906 44.705 359.898 L 44.705 359.898 L 44.705 359.898 Q 44.416 359.898 44.119 360.004 L 44.119 360.004 L 44.119 360.004 Q 43.818 360.109 43.576 360.348 L 43.576 360.348 L 43.576 360.348 Q 43.338 360.582 43.185 360.988 L 43.185 360.988 L 43.185 360.988 Q 43.033 361.387 43.033 361.988 L 43.033 361.988 L 43.033 361.988 Q 43.033 362.613 43.209 363.004 L 43.209 363.004 L 43.209 363.004 Q 43.369 363.41 43.627 363.637 L 43.627 363.637 L 43.627 363.637 Q 43.759 363.746 43.912 363.82 L 43.912 363.82 L 43.912 363.82 Q 44.056 363.906 44.209 363.957 L 44.209 363.957 L 44.209 363.957 Q 44.513 364.051 44.834 364.051 L 44.834 364.051 L 44.834 364.051 Q 45.673 364.059 46.295 363.395 L 46.295 363.395 L 45.705 362.891 L 45.705 362.891 L 45.705 362.891 Q 45.314 363.285 44.818 363.285 L 44.818 363.285 L 44.818 363.285 Q 44.392 363.285 44.13 363.027 L 44.13 363.027 L 44.13 363.027 Q 43.849 362.773 43.849 362.285 L 43.849 362.285 Z  M 45.56 361.613 L 43.849 361.613 L 43.849 361.613 Q 43.873 361.141 44.103 360.898 L 44.103 360.898 L 44.103 360.898 Q 44.338 360.668 44.705 360.668 L 44.705 360.668 L 44.705 360.668 Q 45.072 360.668 45.306 360.898 L 45.306 360.898 L 45.306 360.898 Q 45.545 361.141 45.56 361.613 L 45.56 361.613 Z  M 49.658 363.578 L 49.658 363.578 L 49.658 364.004 L 50.474 364.004 L 50.474 358.309 L 49.658 358.309 L 49.658 360.379 L 49.658 360.379 L 49.658 360.379 Q 49.431 360.164 49.185 360.027 L 49.185 360.027 L 49.185 360.027 Q 48.92 359.898 48.607 359.898 L 48.607 359.898 L 48.607 359.898 Q 47.865 359.918 47.521 360.43 L 47.521 360.43 L 47.521 360.43 Q 47.353 360.621 47.298 360.934 L 47.298 360.934 L 47.298 360.934 Q 47.232 361.242 47.232 361.973 L 47.232 361.973 L 47.232 361.973 Q 47.232 362.691 47.298 363.004 L 47.298 363.004 L 47.298 363.004 Q 47.353 363.332 47.521 363.523 L 47.521 363.523 L 47.521 363.523 Q 47.705 363.758 47.978 363.898 L 47.978 363.898 L 47.978 363.898 Q 48.24 364.043 48.607 364.051 L 48.607 364.051 L 48.607 364.051 Q 49.255 364.035 49.658 363.578 L 49.658 363.578 Z  M 48.857 360.715 L 48.857 360.715 L 48.857 360.715 Q 49.146 360.715 49.314 360.828 L 49.314 360.828 L 49.314 360.828 Q 49.482 360.941 49.545 361.125 L 49.545 361.125 L 49.545 361.125 Q 49.623 361.309 49.65 361.523 L 49.65 361.523 L 49.65 361.523 Q 49.658 361.738 49.658 361.973 L 49.658 361.973 L 49.658 361.973 Q 49.658 362.188 49.65 362.41 L 49.65 362.41 L 49.65 362.41 Q 49.623 362.637 49.545 362.82 L 49.545 362.82 L 49.545 362.82 Q 49.482 363.004 49.314 363.117 L 49.314 363.117 L 49.314 363.117 Q 49.146 363.234 48.857 363.234 L 48.857 363.234 L 48.857 363.234 Q 48.568 363.234 48.416 363.125 L 48.416 363.125 L 48.416 363.125 Q 48.248 363.012 48.17 362.836 L 48.17 362.836 L 48.17 362.836 Q 48.095 362.652 48.072 362.422 L 48.072 362.422 L 48.072 362.422 Q 48.048 362.203 48.048 361.973 L 48.048 361.973 L 48.048 361.973 Q 48.048 361.73 48.072 361.5 L 48.072 361.5 L 48.072 361.5 Q 48.095 361.285 48.17 361.102 L 48.17 361.102 L 48.17 361.102 Q 48.248 360.918 48.416 360.813 L 48.416 360.813 L 48.416 360.813 Q 48.568 360.715 48.857 360.715 L 48.857 360.715 Z " fill-rule="evenodd" fill="rgb(48,48,48)"/><path d=" M 34.317 368.341 L 33.402 368.341 L 33.402 368.341 Q 33.043 369.118 32.317 369.118 L 32.317 369.118 L 32.317 369.118 Q 32.012 369.118 31.793 368.989 L 31.793 368.989 L 31.793 368.989 Q 31.57 368.88 31.434 368.704 L 31.434 368.704 L 31.434 368.704 Q 31.266 368.52 31.211 368.223 L 31.211 368.223 L 31.211 368.223 Q 31.149 367.927 31.149 367.087 L 31.149 367.087 L 31.149 367.087 Q 31.149 366.247 31.211 365.942 L 31.211 365.942 L 31.211 365.942 Q 31.266 365.653 31.434 365.47 L 31.434 365.47 L 31.434 365.47 Q 31.57 365.294 31.793 365.177 L 31.793 365.177 L 31.793 365.177 Q 32.012 365.063 32.317 365.055 L 32.317 365.055 L 32.317 365.055 Q 32.731 365.063 33.02 365.294 L 33.02 365.294 L 33.02 365.294 Q 33.297 365.536 33.402 365.88 L 33.402 365.88 L 34.317 365.88 L 34.317 365.88 Q 34.18 365.165 33.66 364.68 L 33.66 364.68 L 33.66 364.68 Q 33.141 364.2 32.317 364.192 L 32.317 364.192 L 32.317 364.192 Q 31.645 364.2 31.195 364.513 L 31.195 364.513 L 31.195 364.513 Q 30.738 364.821 30.531 365.216 L 30.531 365.216 L 30.531 365.216 Q 30.402 365.423 30.34 365.759 L 30.34 365.759 L 30.34 365.759 Q 30.281 366.095 30.281 367.087 L 30.281 367.087 L 30.281 367.087 Q 30.281 368.063 30.34 368.407 L 30.34 368.407 L 30.34 368.407 Q 30.371 368.591 30.418 368.712 L 30.418 368.712 L 30.418 368.712 Q 30.469 368.829 30.531 368.958 L 30.531 368.958 L 30.531 368.958 Q 30.738 369.352 31.195 369.653 L 31.195 369.653 L 31.195 369.653 Q 31.645 369.966 32.317 369.981 L 32.317 369.981 L 32.317 369.981 Q 33.059 369.981 33.602 369.559 L 33.602 369.559 L 33.602 369.559 Q 34.129 369.134 34.317 368.341 L 34.317 368.341 Z  M 34.875 365.88 L 34.875 369.934 L 35.692 369.934 L 35.692 365.88 L 34.875 365.88 Z  M 34.875 364.239 L 34.875 365.055 L 35.692 365.055 L 35.692 364.239 L 34.875 364.239 Z  M 36.77 365.88 L 36.77 369.934 L 37.586 369.934 L 37.586 367.493 L 37.586 367.493 Q 37.594 367.048 37.844 366.848 L 37.844 366.848 L 37.844 366.848 Q 38.067 366.645 38.379 366.645 L 38.379 366.645 L 38.379 366.645 Q 38.656 366.645 38.914 366.848 L 38.914 366.848 L 38.914 366.848 L 39.508 366.141 L 39.508 366.141 Q 39.145 365.837 38.656 365.829 L 38.656 365.829 L 38.656 365.829 Q 38.004 365.829 37.602 366.309 L 37.602 366.309 L 37.586 366.309 L 37.586 365.88 L 36.77 365.88 Z  M 42.867 369.278 L 42.266 368.743 L 42.266 368.743 L 42.266 368.743 Q 41.957 369.157 41.442 369.165 L 41.442 369.165 L 41.442 369.165 Q 40.402 369.184 40.387 367.911 L 40.387 367.911 L 40.387 367.911 Q 40.402 366.63 41.442 366.645 L 41.442 366.645 L 41.442 366.645 Q 41.957 366.661 42.266 367.071 L 42.266 367.071 L 42.266 367.071 L 42.867 366.536 L 42.867 366.536 Q 42.602 366.216 42.242 366.024 L 42.242 366.024 L 42.242 366.024 Q 41.883 365.837 41.41 365.829 L 41.41 365.829 L 41.41 365.829 Q 40.692 365.821 40.149 366.309 L 40.149 366.309 L 40.149 366.309 Q 39.586 366.805 39.57 367.911 L 39.57 367.911 L 39.57 367.911 Q 39.586 369.005 40.149 369.493 L 40.149 369.493 L 40.149 369.493 Q 40.692 369.981 41.41 369.981 L 41.41 369.981 L 41.41 369.981 Q 41.883 369.973 42.242 369.774 L 42.242 369.774 L 42.242 369.774 Q 42.602 369.583 42.867 369.278 L 42.867 369.278 Z  M 43.434 365.88 L 43.434 368.575 L 43.434 368.575 Q 43.442 369.263 43.883 369.614 L 43.883 369.614 L 43.883 369.614 Q 44.289 369.973 44.793 369.981 L 44.793 369.981 L 44.793 369.981 Q 45.442 369.981 45.844 369.501 L 45.844 369.501 L 45.859 369.501 L 45.859 369.934 L 46.676 369.934 L 46.676 365.88 L 45.859 365.88 L 45.859 368.294 L 45.859 368.294 Q 45.859 368.704 45.633 368.934 L 45.633 368.934 L 45.633 368.934 Q 45.41 369.165 45.059 369.165 L 45.059 369.165 L 45.059 369.165 Q 44.707 369.165 44.481 368.934 L 44.481 368.934 L 44.481 368.934 Q 44.25 368.704 44.25 368.294 L 44.25 368.294 L 44.25 365.88 L 43.434 365.88 Z  M 47.754 365.88 L 47.754 369.934 L 48.57 369.934 L 48.57 365.88 L 47.754 365.88 Z  M 47.754 364.239 L 47.754 365.055 L 48.57 365.055 L 48.57 364.239 L 47.754 364.239 Z  M 49.695 364.645 L 49.695 365.88 L 49.289 365.88 L 49.289 366.501 L 49.695 366.501 L 49.695 368.934 L 49.695 368.934 Q 49.695 369.415 49.977 369.669 L 49.977 369.669 L 49.977 369.669 Q 50.25 369.934 50.68 369.934 L 50.68 369.934 L 51.106 369.934 L 51.106 369.165 L 50.801 369.165 L 50.801 369.165 Q 50.504 369.173 50.512 368.864 L 50.512 368.864 L 50.512 366.501 L 51.106 366.501 L 51.106 365.88 L 50.512 365.88 L 50.512 364.645 L 49.695 364.645 Z  M 51.992 368.696 L 51.992 368.696 L 51.422 369.255 L 51.422 369.255 Q 52.215 369.981 53.207 369.981 L 53.207 369.981 L 53.207 369.981 Q 53.938 369.973 54.406 369.645 L 54.406 369.645 L 54.406 369.645 Q 54.879 369.325 54.887 368.735 L 54.887 368.735 L 54.887 368.735 Q 54.887 368.231 54.625 367.903 L 54.625 367.903 L 54.625 367.903 Q 54.344 367.567 53.711 367.52 L 53.711 367.52 L 53.039 367.47 L 53.039 367.47 Q 52.742 367.438 52.625 367.325 L 52.625 367.325 L 52.625 367.325 Q 52.496 367.223 52.504 367.087 L 52.504 367.087 L 52.504 367.087 Q 52.504 366.872 52.664 366.735 L 52.664 366.735 L 52.664 366.735 Q 52.817 366.598 53.199 366.598 L 53.199 366.598 L 53.199 366.598 Q 53.535 366.598 53.793 366.696 L 53.793 366.696 L 53.793 366.696 Q 54.055 366.805 54.289 366.973 L 54.289 366.973 L 54.289 366.973 L 54.793 366.384 L 54.793 366.384 Q 54.496 366.126 54.121 365.973 L 54.121 365.973 L 54.121 365.973 Q 53.926 365.903 53.703 365.864 L 53.703 365.864 L 53.703 365.864 Q 53.481 365.829 53.199 365.829 L 53.199 365.829 L 53.199 365.829 Q 52.551 365.829 52.129 366.141 L 52.129 366.141 L 52.129 366.141 Q 51.695 366.454 51.688 367.079 L 51.688 367.079 L 51.688 367.079 Q 51.695 367.598 52.024 367.888 L 52.024 367.888 L 52.024 367.888 Q 52.344 368.184 52.856 368.231 L 52.856 368.231 L 53.574 368.294 L 53.574 368.294 Q 53.801 368.302 53.938 368.391 L 53.938 368.391 L 53.938 368.391 Q 54.07 368.477 54.07 368.696 L 54.07 368.696 L 54.07 368.696 Q 54.07 368.942 53.848 369.079 L 53.848 369.079 L 53.848 369.079 Q 53.625 369.216 53.274 369.216 L 53.274 369.216 L 53.274 369.216 Q 52.488 369.216 51.992 368.696 L 51.992 368.696 Z " fill-rule="evenodd" fill="rgb(239,239,239)"/></g></g></svg>