<?xml version="1.0" standalone="no"?><!-- Generator: Gravit.io --><svg xmlns="http://www.w3.org/2000/svg" xmlns:xlink="http://www.w3.org/1999/xlink" style="isolation:isolate" viewBox="0 0 42 42.001" width="42" height="42.001"><defs><clipPath id="_clipPath_88AhfYXuI7lzW8cpkreMavNqVvuUcaqR"><rect width="42" height="42.001"/></clipPath></defs><g clip-path="url(#_clipPath_88AhfYXuI7lzW8cpkreMavNqVvuUcaqR)"><g id="BlueKnob"><path d=" M 0.5 21 C 0.5 9.686 9.686 0.5 21 0.5 C 32.314 0.5 41.5 9.686 41.5 21 C 41.5 32.314 32.314 41.5 21 41.5 C 9.686 41.5 0.5 32.314 0.5 21 Z " fill="rgb(48,48,48)" vector-effect="non-scaling-stroke" stroke-width="0.976" stroke="rgb(0,0,0)" stroke-linejoin="miter" stroke-linecap="square" stroke-miterlimit="3"/><rect x="20" y="1.476" width="2" height="6" transform="matrix(1,0,0,1,0,0)" fill="rgb(255,255,255)"/><path d=" M 6.816 21 C 6.816 13.185 13.161 6.84 20.976 6.84 C 28.791 6.84 35.136 13.185 35.136 21 C 35.136 28.815 28.791 35.16 20.976 35.16 C 13.161 35.16 6.816 28.815 6.816 21 Z " fill="rgb(60,120,160)" vector-effect="non-scaling-stroke" stroke-width="1" stroke="rgb(255,255,255)" stroke-linejoin="miter" stroke-linecap="square" stroke-miterlimit="3"/></g></g></svg>