<?xml version="1.0" standalone="no"?><!-- Generator: Gravit.io --><svg xmlns="http://www.w3.org/2000/svg" xmlns:xlink="http://www.w3.org/1999/xlink" style="isolation:isolate" viewBox="0 0 42 42.001" width="42" height="42.001"><defs><clipPath id="_clipPath_PVvLXP3iAGFzkpUb1dnHpYqxvdzK9HuT"><rect width="42" height="42.001"/></clipPath></defs><g clip-path="url(#_clipPath_PVvLXP3iAGFzkpUb1dnHpYqxvdzK9HuT)"><g id="WhiteKnob"><path d=" M 0.5 21 C 0.5 9.686 9.686 0.5 21 0.5 C 32.314 0.5 41.5 9.686 41.5 21 C 41.5 32.314 32.314 41.5 21 41.5 C 9.686 41.5 0.5 32.314 0.5 21 Z " fill="rgb(48,48,48)" vector-effect="non-scaling-stroke" stroke-width="0.976" stroke="rgb(0,0,0)" stroke-linejoin="miter" stroke-linecap="square" stroke-miterlimit="3"/><rect x="20.024" y="1.476" width="1.952" height="5.857" transform="matrix(1,0,0,1,0,0)" fill="rgb(255,255,255)"/><path d=" M 7.177 21 C 7.177 13.371 13.371 7.177 21 7.177 C 28.629 7.177 34.823 13.371 34.823 21 C 34.823 28.629 28.629 34.823 21 34.823 C 13.371 34.823 7.177 28.629 7.177 21 Z " fill="rgb(255,255,255)" vector-effect="non-scaling-stroke" stroke-width="0.976" stroke="rgb(255,255,255)" stroke-linejoin="miter" stroke-linecap="square" stroke-miterlimit="3"/></g></g></svg>