<?xml version="1.0" encoding="UTF-8" standalone="no"?><!-- Generator: Gravit.io --><svg xmlns="http://www.w3.org/2000/svg" xmlns:xlink="http://www.w3.org/1999/xlink" style="isolation:isolate" viewBox="0 0 75 380" width="75px" height="380px"><defs><clipPath id="_clipPath_I6mluBG4GGyM9OzwWTUVwre6cwGr6k6A"><rect width="75" height="380"/></clipPath></defs><g clip-path="url(#_clipPath_I6mluBG4GGyM9OzwWTUVwre6cwGr6k6A)"><rect width="75" height="380" style="fill:rgb(239,239,239)"/><g><rect x="17.125" y="357" width="40.75" height="7" transform="matrix(1,0,0,1,0,0)" fill="rgb(239,239,239)"/><path d=" M 21.845 361.965 L 20.181 361.965 L 21.005 359.477 L 21.021 359.477 L 21.845 361.965 Z  M 22.091 362.73 L 22.533 364.004 L 23.443 364.004 L 21.373 358.309 L 20.65 358.309 L 18.58 364.004 L 19.494 364.004 L 19.931 362.73 L 22.091 362.73 Z  M 23.978 359.949 L 23.978 364.004 L 24.795 364.004 L 24.795 361.59 L 24.795 361.59 Q 24.795 361.164 25.025 360.941 L 25.025 360.941 L 25.025 360.941 Q 25.252 360.715 25.603 360.715 L 25.603 360.715 L 25.603 360.715 Q 25.955 360.715 26.177 360.941 L 26.177 360.941 L 26.177 360.941 Q 26.404 361.164 26.404 361.59 L 26.404 361.59 L 26.404 364.004 L 27.22 364.004 L 27.22 361.309 L 27.22 361.309 Q 27.201 360.613 26.787 360.254 L 26.787 360.254 L 26.787 360.254 Q 26.369 359.898 25.865 359.898 L 25.865 359.898 L 25.865 359.898 Q 25.213 359.898 24.81 360.379 L 24.81 360.379 L 24.795 360.379 L 24.795 359.949 L 23.978 359.949 Z  M 28.298 359.949 L 28.298 364.004 L 29.115 364.004 L 29.115 359.949 L 28.298 359.949 Z  M 28.298 358.309 L 28.298 359.125 L 29.115 359.125 L 29.115 358.309 L 28.298 358.309 Z  M 30.24 359.949 L 30.24 364.004 L 31.056 364.004 L 31.056 361.59 L 31.056 361.59 Q 31.056 361.164 31.291 360.941 L 31.291 360.941 L 31.291 360.941 Q 31.513 360.715 31.865 360.715 L 31.865 360.715 L 31.865 360.715 Q 32.216 360.715 32.443 360.941 L 32.443 360.941 L 32.443 360.941 Q 32.666 361.164 32.666 361.59 L 32.666 361.59 L 32.666 364.004 L 33.482 364.004 L 33.482 361.59 L 33.482 361.59 Q 33.482 361.164 33.713 360.941 L 33.713 360.941 L 33.713 360.941 Q 33.939 360.715 34.291 360.715 L 34.291 360.715 L 34.291 360.715 Q 34.642 360.715 34.865 360.941 L 34.865 360.941 L 34.865 360.941 Q 35.088 361.164 35.088 361.59 L 35.088 361.59 L 35.088 364.004 L 35.904 364.004 L 35.904 361.309 L 35.904 361.309 Q 35.888 360.613 35.474 360.254 L 35.474 360.254 L 35.474 360.254 Q 35.056 359.898 34.552 359.898 L 34.552 359.898 L 34.552 359.898 Q 33.752 359.891 33.275 360.43 L 33.275 360.43 L 33.275 360.43 L 33.275 360.43 Q 33.064 360.195 32.81 360.043 L 32.81 360.043 L 32.81 360.043 Q 32.552 359.906 32.13 359.898 L 32.13 359.898 L 32.13 359.898 Q 31.474 359.898 31.072 360.379 L 31.072 360.379 L 31.056 360.379 L 31.056 359.949 L 30.24 359.949 Z  M 39.138 363.645 L 39.138 364.004 L 39.955 364.004 L 39.955 361.234 L 39.955 361.234 Q 39.947 360.492 39.49 360.188 L 39.49 360.188 L 39.49 360.188 Q 39.033 359.891 38.267 359.898 L 38.267 359.898 L 38.267 359.898 Q 37.361 359.883 36.896 360.492 L 36.896 360.492 L 37.537 360.98 L 37.537 360.98 L 37.537 360.98 Q 37.642 360.805 37.826 360.73 L 37.826 360.73 L 37.826 360.73 Q 38.002 360.668 38.306 360.668 L 38.306 360.668 L 38.306 360.668 Q 39.146 360.652 39.138 361.188 L 39.138 361.188 L 39.138 361.613 L 38.009 361.613 L 38.009 361.613 Q 37.361 361.621 37.025 361.965 L 37.025 361.965 L 37.025 361.965 Q 36.689 362.301 36.689 362.813 L 36.689 362.813 L 36.689 362.813 Q 36.689 363.348 37.076 363.691 L 37.076 363.691 L 37.076 363.691 Q 37.443 364.043 38.123 364.051 L 38.123 364.051 L 38.123 364.051 Q 38.537 364.051 38.771 363.949 L 38.771 363.949 L 38.771 363.949 Q 39.009 363.852 39.123 363.645 L 39.123 363.645 L 39.138 363.645 Z  M 39.138 362.285 L 39.138 362.578 L 39.138 362.578 Q 39.138 363.035 38.947 363.164 L 38.947 363.164 L 38.947 363.164 Q 38.736 363.293 38.224 363.285 L 38.224 363.285 L 38.224 363.285 Q 37.818 363.285 37.642 363.125 L 37.642 363.125 L 37.642 363.125 Q 37.459 362.98 37.459 362.773 L 37.459 362.773 L 37.459 362.773 Q 37.451 362.301 38.162 362.285 L 38.162 362.285 L 39.138 362.285 Z  M 41.056 358.715 L 41.056 359.949 L 40.65 359.949 L 40.65 360.57 L 41.056 360.57 L 41.056 363.004 L 41.056 363.004 Q 41.056 363.484 41.338 363.738 L 41.338 363.738 L 41.338 363.738 Q 41.611 364.004 42.041 364.004 L 42.041 364.004 L 42.466 364.004 L 42.466 363.234 L 42.162 363.234 L 42.162 363.234 Q 41.865 363.242 41.873 362.934 L 41.873 362.934 L 41.873 360.57 L 42.466 360.57 L 42.466 359.949 L 41.873 359.949 L 41.873 358.715 L 41.056 358.715 Z  M 43.849 362.285 L 46.377 362.285 L 46.377 361.613 L 46.377 361.613 Q 46.369 360.813 45.88 360.355 L 45.88 360.355 L 45.88 360.355 Q 45.4 359.906 44.705 359.898 L 44.705 359.898 L 44.705 359.898 Q 44.416 359.898 44.119 360.004 L 44.119 360.004 L 44.119 360.004 Q 43.818 360.109 43.576 360.348 L 43.576 360.348 L 43.576 360.348 Q 43.338 360.582 43.185 360.988 L 43.185 360.988 L 43.185 360.988 Q 43.033 361.387 43.033 361.988 L 43.033 361.988 L 43.033 361.988 Q 43.033 362.613 43.209 363.004 L 43.209 363.004 L 43.209 363.004 Q 43.369 363.41 43.627 363.637 L 43.627 363.637 L 43.627 363.637 Q 43.759 363.746 43.912 363.82 L 43.912 363.82 L 43.912 363.82 Q 44.056 363.906 44.209 363.957 L 44.209 363.957 L 44.209 363.957 Q 44.513 364.051 44.834 364.051 L 44.834 364.051 L 44.834 364.051 Q 45.673 364.059 46.295 363.395 L 46.295 363.395 L 45.705 362.891 L 45.705 362.891 L 45.705 362.891 Q 45.314 363.285 44.818 363.285 L 44.818 363.285 L 44.818 363.285 Q 44.392 363.285 44.13 363.027 L 44.13 363.027 L 44.13 363.027 Q 43.849 362.773 43.849 362.285 L 43.849 362.285 Z  M 45.56 361.613 L 43.849 361.613 L 43.849 361.613 Q 43.873 361.141 44.103 360.898 L 44.103 360.898 L 44.103 360.898 Q 44.338 360.668 44.705 360.668 L 44.705 360.668 L 44.705 360.668 Q 45.072 360.668 45.306 360.898 L 45.306 360.898 L 45.306 360.898 Q 45.545 361.141 45.56 361.613 L 45.56 361.613 Z  M 49.658 363.578 L 49.658 363.578 L 49.658 364.004 L 50.474 364.004 L 50.474 358.309 L 49.658 358.309 L 49.658 360.379 L 49.658 360.379 L 49.658 360.379 Q 49.431 360.164 49.185 360.027 L 49.185 360.027 L 49.185 360.027 Q 48.92 359.898 48.607 359.898 L 48.607 359.898 L 48.607 359.898 Q 47.865 359.918 47.521 360.43 L 47.521 360.43 L 47.521 360.43 Q 47.353 360.621 47.298 360.934 L 47.298 360.934 L 47.298 360.934 Q 47.232 361.242 47.232 361.973 L 47.232 361.973 L 47.232 361.973 Q 47.232 362.691 47.298 363.004 L 47.298 363.004 L 47.298 363.004 Q 47.353 363.332 47.521 363.523 L 47.521 363.523 L 47.521 363.523 Q 47.705 363.758 47.978 363.898 L 47.978 363.898 L 47.978 363.898 Q 48.24 364.043 48.607 364.051 L 48.607 364.051 L 48.607 364.051 Q 49.255 364.035 49.658 363.578 L 49.658 363.578 Z  M 48.857 360.715 L 48.857 360.715 L 48.857 360.715 Q 49.146 360.715 49.314 360.828 L 49.314 360.828 L 49.314 360.828 Q 49.482 360.941 49.545 361.125 L 49.545 361.125 L 49.545 361.125 Q 49.623 361.309 49.65 361.523 L 49.65 361.523 L 49.65 361.523 Q 49.658 361.738 49.658 361.973 L 49.658 361.973 L 49.658 361.973 Q 49.658 362.188 49.65 362.41 L 49.65 362.41 L 49.65 362.41 Q 49.623 362.637 49.545 362.82 L 49.545 362.82 L 49.545 362.82 Q 49.482 363.004 49.314 363.117 L 49.314 363.117 L 49.314 363.117 Q 49.146 363.234 48.857 363.234 L 48.857 363.234 L 48.857 363.234 Q 48.568 363.234 48.416 363.125 L 48.416 363.125 L 48.416 363.125 Q 48.248 363.012 48.17 362.836 L 48.17 362.836 L 48.17 362.836 Q 48.095 362.652 48.072 362.422 L 48.072 362.422 L 48.072 362.422 Q 48.048 362.203 48.048 361.973 L 48.048 361.973 L 48.048 361.973 Q 48.048 361.73 48.072 361.5 L 48.072 361.5 L 48.072 361.5 Q 48.095 361.285 48.17 361.102 L 48.17 361.102 L 48.17 361.102 Q 48.248 360.918 48.416 360.813 L 48.416 360.813 L 48.416 360.813 Q 48.568 360.715 48.857 360.715 L 48.857 360.715 Z " fill="rgb(48,48,48)"/><rect x="17.125" y="364" width="40.75" height="7" transform="matrix(1,0,0,1,0,0)" fill="rgb(48,48,48)"/><path d=" M 34.317 368.341 L 33.402 368.341 L 33.402 368.341 Q 33.043 369.118 32.317 369.118 L 32.317 369.118 L 32.317 369.118 Q 32.012 369.118 31.793 368.989 L 31.793 368.989 L 31.793 368.989 Q 31.57 368.88 31.434 368.704 L 31.434 368.704 L 31.434 368.704 Q 31.266 368.52 31.211 368.223 L 31.211 368.223 L 31.211 368.223 Q 31.149 367.927 31.149 367.087 L 31.149 367.087 L 31.149 367.087 Q 31.149 366.247 31.211 365.942 L 31.211 365.942 L 31.211 365.942 Q 31.266 365.653 31.434 365.47 L 31.434 365.47 L 31.434 365.47 Q 31.57 365.294 31.793 365.177 L 31.793 365.177 L 31.793 365.177 Q 32.012 365.063 32.317 365.055 L 32.317 365.055 L 32.317 365.055 Q 32.731 365.063 33.02 365.294 L 33.02 365.294 L 33.02 365.294 Q 33.297 365.536 33.402 365.88 L 33.402 365.88 L 34.317 365.88 L 34.317 365.88 Q 34.18 365.165 33.66 364.68 L 33.66 364.68 L 33.66 364.68 Q 33.141 364.2 32.317 364.192 L 32.317 364.192 L 32.317 364.192 Q 31.645 364.2 31.195 364.513 L 31.195 364.513 L 31.195 364.513 Q 30.738 364.821 30.531 365.216 L 30.531 365.216 L 30.531 365.216 Q 30.402 365.423 30.34 365.759 L 30.34 365.759 L 30.34 365.759 Q 30.281 366.095 30.281 367.087 L 30.281 367.087 L 30.281 367.087 Q 30.281 368.063 30.34 368.407 L 30.34 368.407 L 30.34 368.407 Q 30.371 368.591 30.418 368.712 L 30.418 368.712 L 30.418 368.712 Q 30.469 368.829 30.531 368.958 L 30.531 368.958 L 30.531 368.958 Q 30.738 369.352 31.195 369.653 L 31.195 369.653 L 31.195 369.653 Q 31.645 369.966 32.317 369.981 L 32.317 369.981 L 32.317 369.981 Q 33.059 369.981 33.602 369.559 L 33.602 369.559 L 33.602 369.559 Q 34.129 369.134 34.317 368.341 L 34.317 368.341 Z  M 34.875 365.88 L 34.875 369.934 L 35.692 369.934 L 35.692 365.88 L 34.875 365.88 Z  M 34.875 364.239 L 34.875 365.055 L 35.692 365.055 L 35.692 364.239 L 34.875 364.239 Z  M 36.77 365.88 L 36.77 369.934 L 37.586 369.934 L 37.586 367.493 L 37.586 367.493 Q 37.594 367.048 37.844 366.848 L 37.844 366.848 L 37.844 366.848 Q 38.067 366.645 38.379 366.645 L 38.379 366.645 L 38.379 366.645 Q 38.656 366.645 38.914 366.848 L 38.914 366.848 L 38.914 366.848 L 39.508 366.141 L 39.508 366.141 Q 39.145 365.837 38.656 365.829 L 38.656 365.829 L 38.656 365.829 Q 38.004 365.829 37.602 366.309 L 37.602 366.309 L 37.586 366.309 L 37.586 365.88 L 36.77 365.88 Z  M 42.723 369.278 L 42.121 368.743 L 42.121 368.743 L 42.121 368.743 Q 41.813 369.157 41.297 369.165 L 41.297 369.165 L 41.297 369.165 Q 40.258 369.184 40.242 367.911 L 40.242 367.911 L 40.242 367.911 Q 40.258 366.63 41.297 366.645 L 41.297 366.645 L 41.297 366.645 Q 41.813 366.661 42.121 367.071 L 42.121 367.071 L 42.121 367.071 L 42.723 366.536 L 42.723 366.536 Q 42.457 366.216 42.098 366.024 L 42.098 366.024 L 42.098 366.024 Q 41.738 365.837 41.266 365.829 L 41.266 365.829 L 41.266 365.829 Q 40.547 365.821 40.004 366.309 L 40.004 366.309 L 40.004 366.309 Q 39.442 366.805 39.426 367.911 L 39.426 367.911 L 39.426 367.911 Q 39.442 369.005 40.004 369.493 L 40.004 369.493 L 40.004 369.493 Q 40.547 369.981 41.266 369.981 L 41.266 369.981 L 41.266 369.981 Q 41.738 369.973 42.098 369.774 L 42.098 369.774 L 42.098 369.774 Q 42.457 369.583 42.723 369.278 L 42.723 369.278 Z  M 43.289 365.88 L 43.289 368.575 L 43.289 368.575 Q 43.297 369.263 43.738 369.614 L 43.738 369.614 L 43.738 369.614 Q 44.145 369.973 44.649 369.981 L 44.649 369.981 L 44.649 369.981 Q 45.297 369.981 45.699 369.501 L 45.699 369.501 L 45.715 369.501 L 45.715 369.934 L 46.531 369.934 L 46.531 365.88 L 45.715 365.88 L 45.715 368.294 L 45.715 368.294 Q 45.715 368.704 45.488 368.934 L 45.488 368.934 L 45.488 368.934 Q 45.266 369.165 44.914 369.165 L 44.914 369.165 L 44.914 369.165 Q 44.563 369.165 44.336 368.934 L 44.336 368.934 L 44.336 368.934 Q 44.106 368.704 44.106 368.294 L 44.106 368.294 L 44.106 365.88 L 43.289 365.88 Z  M 47.609 365.88 L 47.609 369.934 L 48.426 369.934 L 48.426 365.88 L 47.609 365.88 Z  M 47.609 364.239 L 47.609 365.055 L 48.426 365.055 L 48.426 364.239 L 47.609 364.239 Z  M 49.551 364.645 L 49.551 365.88 L 49.145 365.88 L 49.145 366.501 L 49.551 366.501 L 49.551 368.934 L 49.551 368.934 Q 49.551 369.415 49.832 369.669 L 49.832 369.669 L 49.832 369.669 Q 50.106 369.934 50.535 369.934 L 50.535 369.934 L 50.961 369.934 L 50.961 369.165 L 50.656 369.165 L 50.656 369.165 Q 50.359 369.173 50.367 368.864 L 50.367 368.864 L 50.367 366.501 L 50.961 366.501 L 50.961 365.88 L 50.367 365.88 L 50.367 364.645 L 49.551 364.645 Z  M 51.848 368.696 L 51.848 368.696 L 51.277 369.255 L 51.277 369.255 Q 52.07 369.981 53.063 369.981 L 53.063 369.981 L 53.063 369.981 Q 53.793 369.973 54.262 369.645 L 54.262 369.645 L 54.262 369.645 Q 54.734 369.325 54.742 368.735 L 54.742 368.735 L 54.742 368.735 Q 54.742 368.231 54.481 367.903 L 54.481 367.903 L 54.481 367.903 Q 54.199 367.567 53.567 367.52 L 53.567 367.52 L 52.895 367.47 L 52.895 367.47 Q 52.598 367.438 52.481 367.325 L 52.481 367.325 L 52.481 367.325 Q 52.352 367.223 52.359 367.087 L 52.359 367.087 L 52.359 367.087 Q 52.359 366.872 52.52 366.735 L 52.52 366.735 L 52.52 366.735 Q 52.672 366.598 53.055 366.598 L 53.055 366.598 L 53.055 366.598 Q 53.391 366.598 53.649 366.696 L 53.649 366.696 L 53.649 366.696 Q 53.91 366.805 54.145 366.973 L 54.145 366.973 L 54.145 366.973 L 54.649 366.384 L 54.649 366.384 Q 54.352 366.126 53.977 365.973 L 53.977 365.973 L 53.977 365.973 Q 53.781 365.903 53.559 365.864 L 53.559 365.864 L 53.559 365.864 Q 53.336 365.829 53.055 365.829 L 53.055 365.829 L 53.055 365.829 Q 52.406 365.829 51.984 366.141 L 51.984 366.141 L 51.984 366.141 Q 51.551 366.454 51.543 367.079 L 51.543 367.079 L 51.543 367.079 Q 51.551 367.598 51.879 367.888 L 51.879 367.888 L 51.879 367.888 Q 52.199 368.184 52.711 368.231 L 52.711 368.231 L 53.43 368.294 L 53.43 368.294 Q 53.656 368.302 53.793 368.391 L 53.793 368.391 L 53.793 368.391 Q 53.926 368.477 53.926 368.696 L 53.926 368.696 L 53.926 368.696 Q 53.926 368.942 53.703 369.079 L 53.703 369.079 L 53.703 369.079 Q 53.481 369.216 53.129 369.216 L 53.129 369.216 L 53.129 369.216 Q 52.344 369.216 51.848 368.696 L 51.848 368.696 Z " fill="rgb(239,239,239)"/></g><path d="M 44.252 286 L 66.748 286 C 67.991 286 69 287.009 69 288.252 L 69 349.748 C 69 350.991 67.991 352 66.748 352 L 44.252 352 C 43.009 352 42 350.991 42 349.748 L 42 288.252 C 42 287.009 43.009 286 44.252 286 Z" style="stroke:none;fill:#3A3A3A;stroke-miterlimit:10;"/><g><path d=" M 52.531 326.482 L 49.445 326.482 L 49.445 321.485 L 50.505 321.485 L 50.505 325.607 L 52.531 325.607 L 52.531 326.482 L 52.531 326.482 Z  M 54.442 324.506 L 54.442 326.482 L 53.4 326.482 L 53.4 321.485 L 56.264 321.485 L 56.264 322.353 L 54.442 322.353 L 54.442 323.642 L 56.137 323.642 L 56.137 324.506 L 54.442 324.506 L 54.442 324.506 Z  M 61.777 323.977 L 61.777 323.977 L 61.777 323.977 Q 61.777 325.217 61.162 325.884 L 61.162 325.884 L 61.162 325.884 Q 60.547 326.55 59.398 326.55 L 59.398 326.55 L 59.398 326.55 Q 58.25 326.55 57.635 325.884 L 57.635 325.884 L 57.635 325.884 Q 57.019 325.217 57.019 323.97 L 57.019 323.97 L 57.019 323.97 Q 57.019 322.722 57.636 322.064 L 57.636 322.064 L 57.636 322.064 Q 58.253 321.406 59.405 321.406 L 59.405 321.406 L 59.405 321.406 Q 60.557 321.406 61.167 322.069 L 61.167 322.069 L 61.167 322.069 Q 61.777 322.732 61.777 323.977 Z  M 58.13 323.977 L 58.13 323.977 L 58.13 323.977 Q 58.13 324.814 58.448 325.238 L 58.448 325.238 L 58.448 325.238 Q 58.766 325.662 59.398 325.662 L 59.398 325.662 L 59.398 325.662 Q 60.666 325.662 60.666 323.977 L 60.666 323.977 L 60.666 323.977 Q 60.666 322.288 59.405 322.288 L 59.405 322.288 L 59.405 322.288 Q 58.773 322.288 58.451 322.714 L 58.451 322.714 L 58.451 322.714 Q 58.13 323.139 58.13 323.977 Z " fill="rgb(235,235,235)"/><path d=" M 14.391 325.094 L 14.391 325.094 L 14.391 325.094 Q 14.391 325.771 13.904 326.161 L 13.904 326.161 L 13.904 326.161 Q 13.417 326.55 12.549 326.55 L 12.549 326.55 L 12.549 326.55 Q 11.749 326.55 11.134 326.25 L 11.134 326.25 L 11.134 325.265 L 11.134 325.265 Q 11.64 325.491 11.99 325.583 L 11.99 325.583 L 11.99 325.583 Q 12.34 325.675 12.631 325.675 L 12.631 325.675 L 12.631 325.675 Q 12.979 325.675 13.166 325.542 L 13.166 325.542 L 13.166 325.542 Q 13.352 325.409 13.352 325.146 L 13.352 325.146 L 13.352 325.146 Q 13.352 324.999 13.27 324.884 L 13.27 324.884 L 13.27 324.884 Q 13.188 324.77 13.029 324.664 L 13.029 324.664 L 13.029 324.664 Q 12.87 324.558 12.381 324.325 L 12.381 324.325 L 12.381 324.325 Q 11.923 324.11 11.694 323.912 L 11.694 323.912 L 11.694 323.912 Q 11.465 323.713 11.329 323.45 L 11.329 323.45 L 11.329 323.45 Q 11.192 323.187 11.192 322.835 L 11.192 322.835 L 11.192 322.835 Q 11.192 322.172 11.641 321.792 L 11.641 321.792 L 11.641 321.792 Q 12.091 321.413 12.884 321.413 L 12.884 321.413 L 12.884 321.413 Q 13.273 321.413 13.627 321.505 L 13.627 321.505 L 13.627 321.505 Q 13.981 321.598 14.367 321.765 L 14.367 321.765 L 14.025 322.589 L 14.025 322.589 Q 13.625 322.425 13.364 322.36 L 13.364 322.36 L 13.364 322.36 Q 13.103 322.295 12.85 322.295 L 12.85 322.295 L 12.85 322.295 Q 12.549 322.295 12.388 322.435 L 12.388 322.435 L 12.388 322.435 Q 12.228 322.575 12.228 322.801 L 12.228 322.801 L 12.228 322.801 Q 12.228 322.941 12.292 323.045 L 12.292 323.045 L 12.292 323.045 Q 12.357 323.149 12.499 323.247 L 12.499 323.247 L 12.499 323.247 Q 12.641 323.344 13.171 323.597 L 13.171 323.597 L 13.171 323.597 Q 13.872 323.932 14.131 324.269 L 14.131 324.269 L 14.131 324.269 Q 14.391 324.605 14.391 325.094 Z  M 15.816 321.485 L 16.852 323.542 L 17.895 321.485 L 19.036 321.485 L 17.378 324.537 L 17.378 326.482 L 16.326 326.482 L 16.326 324.571 L 14.668 321.485 L 15.816 321.485 L 15.816 321.485 Z  M 24.098 321.485 L 24.098 326.482 L 22.751 326.482 L 20.578 322.702 L 20.547 322.702 L 20.547 322.702 Q 20.612 323.703 20.612 324.13 L 20.612 324.13 L 20.612 326.482 L 19.665 326.482 L 19.665 321.485 L 21.001 321.485 L 23.172 325.228 L 23.196 325.228 L 23.196 325.228 Q 23.145 324.253 23.145 323.85 L 23.145 323.85 L 23.145 321.485 L 24.098 321.485 L 24.098 321.485 Z  M 27.479 322.295 L 27.479 322.295 L 27.479 322.295 Q 26.88 322.295 26.552 322.744 L 26.552 322.744 L 26.552 322.744 Q 26.224 323.194 26.224 323.997 L 26.224 323.997 L 26.224 323.997 Q 26.224 325.668 27.479 325.668 L 27.479 325.668 L 27.479 325.668 Q 28.005 325.668 28.753 325.405 L 28.753 325.405 L 28.753 326.294 L 28.753 326.294 Q 28.138 326.55 27.379 326.55 L 27.379 326.55 L 27.379 326.55 Q 26.289 326.55 25.711 325.889 L 25.711 325.889 L 25.711 325.889 Q 25.134 325.228 25.134 323.99 L 25.134 323.99 L 25.134 323.99 Q 25.134 323.211 25.417 322.625 L 25.417 322.625 L 25.417 322.625 Q 25.701 322.039 26.233 321.726 L 26.233 321.726 L 26.233 321.726 Q 26.764 321.413 27.479 321.413 L 27.479 321.413 L 27.479 321.413 Q 28.207 321.413 28.941 321.765 L 28.941 321.765 L 28.6 322.626 L 28.6 322.626 Q 28.319 322.493 28.036 322.394 L 28.036 322.394 L 28.036 322.394 Q 27.752 322.295 27.479 322.295 Z " fill="rgb(13,13,13)"/><path d=" M 53.207 291.977 L 53.207 291.977 L 53.207 291.977 Q 53.207 293.217 52.591 293.884 L 52.591 293.884 L 52.591 293.884 Q 51.976 294.55 50.828 294.55 L 50.828 294.55 L 50.828 294.55 Q 49.679 294.55 49.064 293.884 L 49.064 293.884 L 49.064 293.884 Q 48.449 293.217 48.449 291.97 L 48.449 291.97 L 48.449 291.97 Q 48.449 290.722 49.066 290.064 L 49.066 290.064 L 49.066 290.064 Q 49.683 289.406 50.834 289.406 L 50.834 289.406 L 50.834 289.406 Q 51.986 289.406 52.596 290.069 L 52.596 290.069 L 52.596 290.069 Q 53.207 290.732 53.207 291.977 Z  M 49.56 291.977 L 49.56 291.977 L 49.56 291.977 Q 49.56 292.814 49.877 293.238 L 49.877 293.238 L 49.877 293.238 Q 50.195 293.662 50.828 293.662 L 50.828 293.662 L 50.828 293.662 Q 52.096 293.662 52.096 291.977 L 52.096 291.977 L 52.096 291.977 Q 52.096 290.288 50.834 290.288 L 50.834 290.288 L 50.834 290.288 Q 50.202 290.288 49.881 290.714 L 49.881 290.714 L 49.881 290.714 Q 49.56 291.139 49.56 291.977 Z  M 57.253 289.485 L 58.31 289.485 L 58.31 292.718 L 58.31 292.718 Q 58.31 293.272 58.062 293.689 L 58.062 293.689 L 58.062 293.689 Q 57.814 294.106 57.346 294.328 L 57.346 294.328 L 57.346 294.328 Q 56.877 294.55 56.238 294.55 L 56.238 294.55 L 56.238 294.55 Q 55.274 294.55 54.741 294.056 L 54.741 294.056 L 54.741 294.056 Q 54.208 293.563 54.208 292.705 L 54.208 292.705 L 54.208 289.485 L 55.264 289.485 L 55.264 292.544 L 55.264 292.544 Q 55.264 293.122 55.497 293.392 L 55.497 293.392 L 55.497 293.392 Q 55.729 293.662 56.266 293.662 L 56.266 293.662 L 56.266 293.662 Q 56.785 293.662 57.019 293.39 L 57.019 293.39 L 57.019 293.39 Q 57.253 293.118 57.253 292.537 L 57.253 292.537 L 57.253 289.485 L 57.253 289.485 Z  M 61.461 290.367 L 61.461 294.482 L 60.401 294.482 L 60.401 290.367 L 59.044 290.367 L 59.044 289.485 L 62.818 289.485 L 62.818 290.367 L 61.461 290.367 L 61.461 290.367 Z " fill="rgb(235,235,235)"/><path d=" M 11.224 292.564 L 11.224 292.564 L 11.224 292.564 Q 11.224 291.659 11.489 290.869 L 11.489 290.869 L 11.489 290.869 Q 11.754 290.08 12.253 289.485 L 12.253 289.485 L 13.108 289.485 L 13.108 289.485 Q 12.626 290.145 12.38 290.934 L 12.38 290.934 L 12.38 290.934 Q 12.134 291.724 12.134 292.558 L 12.134 292.558 L 12.134 292.558 Q 12.134 293.395 12.385 294.176 L 12.385 294.176 L 12.385 294.176 Q 12.636 294.957 13.101 295.589 L 13.101 295.589 L 12.253 295.589 L 12.253 295.589 Q 11.751 295.008 11.488 294.232 L 11.488 294.232 L 11.488 294.232 Q 11.224 293.457 11.224 292.564 Z  M 17.031 294.482 L 13.945 294.482 L 13.945 289.485 L 15.005 289.485 L 15.005 293.607 L 17.031 293.607 L 17.031 294.482 L 17.031 294.482 Z  M 18.942 292.506 L 18.942 294.482 L 17.9 294.482 L 17.9 289.485 L 20.764 289.485 L 20.764 290.353 L 18.942 290.353 L 18.942 291.642 L 20.637 291.642 L 20.637 292.506 L 18.942 292.506 L 18.942 292.506 Z  M 26.277 291.977 L 26.277 291.977 L 26.277 291.977 Q 26.277 293.217 25.662 293.884 L 25.662 293.884 L 25.662 293.884 Q 25.047 294.55 23.898 294.55 L 23.898 294.55 L 23.898 294.55 Q 22.75 294.55 22.135 293.884 L 22.135 293.884 L 22.135 293.884 Q 21.519 293.217 21.519 291.97 L 21.519 291.97 L 21.519 291.97 Q 21.519 290.722 22.136 290.064 L 22.136 290.064 L 22.136 290.064 Q 22.753 289.406 23.905 289.406 L 23.905 289.406 L 23.905 289.406 Q 25.057 289.406 25.667 290.069 L 25.667 290.069 L 25.667 290.069 Q 26.277 290.732 26.277 291.977 Z  M 22.63 291.977 L 22.63 291.977 L 22.63 291.977 Q 22.63 292.814 22.948 293.238 L 22.948 293.238 L 22.948 293.238 Q 23.266 293.662 23.898 293.662 L 23.898 293.662 L 23.898 293.662 Q 25.166 293.662 25.166 291.977 L 25.166 291.977 L 25.166 291.977 Q 25.166 290.288 23.905 290.288 L 23.905 290.288 L 23.905 290.288 Q 23.273 290.288 22.951 290.714 L 22.951 290.714 L 22.951 290.714 Q 22.63 291.139 22.63 291.977 Z  M 28.776 292.564 L 28.776 292.564 L 28.776 292.564 Q 28.776 293.463 28.511 294.239 L 28.511 294.239 L 28.511 294.239 Q 28.246 295.015 27.747 295.589 L 27.747 295.589 L 26.899 295.589 L 26.899 295.589 Q 27.361 294.96 27.614 294.179 L 27.614 294.179 L 27.614 294.179 Q 27.866 293.398 27.866 292.558 L 27.866 292.558 L 27.866 292.558 Q 27.866 291.724 27.62 290.934 L 27.62 290.934 L 27.62 290.934 Q 27.374 290.145 26.892 289.485 L 26.892 289.485 L 27.747 289.485 L 27.747 289.485 Q 28.249 290.083 28.512 290.874 L 28.512 290.874 L 28.512 290.874 Q 28.776 291.666 28.776 292.564 Z " fill="rgb(13,13,13)"/><path d=" M 29.28 199.109 L 29.28 199.109 L 29.28 199.109 Q 29.28 200.853 28.409 201.819 L 28.409 201.819 L 28.409 201.819 Q 27.537 202.786 25.94 202.786 L 25.94 202.786 L 25.94 202.786 Q 24.324 202.786 23.458 201.827 L 23.458 201.827 L 23.458 201.827 Q 22.591 200.867 22.591 199.1 L 22.591 199.1 L 22.591 199.1 Q 22.591 197.332 23.462 196.385 L 23.462 196.385 L 23.462 196.385 Q 24.334 195.438 25.95 195.438 L 25.95 195.438 L 25.95 195.438 Q 27.542 195.438 28.411 196.399 L 28.411 196.399 L 28.411 196.399 Q 29.28 197.361 29.28 199.109 Z  M 23.831 199.109 L 23.831 199.109 L 23.831 199.109 Q 23.831 200.428 24.363 201.109 L 24.363 201.109 L 24.363 201.109 Q 24.896 201.79 25.94 201.79 L 25.94 201.79 L 25.94 201.79 Q 26.98 201.79 27.51 201.116 L 27.51 201.116 L 27.51 201.116 Q 28.04 200.442 28.04 199.109 L 28.04 199.109 L 28.04 199.109 Q 28.04 197.796 27.515 197.117 L 27.515 197.117 L 27.515 197.117 Q 26.99 196.438 25.95 196.438 L 25.95 196.438 L 25.95 196.438 Q 24.9 196.438 24.366 197.117 L 24.366 197.117 L 24.366 197.117 Q 23.831 197.796 23.831 199.109 Z  M 33.401 197.288 L 33.401 198.157 L 32.083 198.157 L 32.083 202.688 L 30.931 202.688 L 30.931 198.157 L 30.042 198.157 L 30.042 197.62 L 30.931 197.269 L 30.931 196.917 L 30.931 196.917 Q 30.931 195.96 31.38 195.499 L 31.38 195.499 L 31.38 195.499 Q 31.829 195.037 32.752 195.037 L 32.752 195.037 L 32.752 195.037 Q 33.357 195.037 33.943 195.237 L 33.943 195.237 L 33.641 196.106 L 33.641 196.106 Q 33.216 195.97 32.83 195.97 L 32.83 195.97 L 32.83 195.97 Q 32.439 195.97 32.261 196.211 L 32.261 196.211 L 32.261 196.211 Q 32.083 196.453 32.083 196.937 L 32.083 196.937 L 32.083 197.288 L 33.401 197.288 L 33.401 197.288 Z  M 37.029 197.288 L 37.029 198.157 L 35.711 198.157 L 35.711 202.688 L 34.559 202.688 L 34.559 198.157 L 33.67 198.157 L 33.67 197.62 L 34.559 197.269 L 34.559 196.917 L 34.559 196.917 Q 34.559 195.96 35.008 195.499 L 35.008 195.499 L 35.008 195.499 Q 35.457 195.037 36.38 195.037 L 36.38 195.037 L 36.38 195.037 Q 36.985 195.037 37.571 195.237 L 37.571 195.237 L 37.269 196.106 L 37.269 196.106 Q 36.844 195.97 36.458 195.97 L 36.458 195.97 L 36.458 195.97 Q 36.067 195.97 35.889 196.211 L 35.889 196.211 L 35.889 196.211 Q 35.711 196.453 35.711 196.937 L 35.711 196.937 L 35.711 197.288 L 37.029 197.288 L 37.029 197.288 Z  M 41.575 201.15 L 41.575 201.15 L 41.575 201.15 Q 41.575 201.941 40.999 202.364 L 40.999 202.364 L 40.999 202.364 Q 40.423 202.786 39.349 202.786 L 39.349 202.786 L 39.349 202.786 Q 38.27 202.786 37.615 202.459 L 37.615 202.459 L 37.615 201.468 L 37.615 201.468 Q 38.567 201.907 39.388 201.907 L 39.388 201.907 L 39.388 201.907 Q 40.447 201.907 40.447 201.268 L 40.447 201.268 L 40.447 201.268 Q 40.447 201.063 40.33 200.926 L 40.33 200.926 L 40.33 200.926 Q 40.213 200.789 39.944 200.643 L 39.944 200.643 L 39.944 200.643 Q 39.676 200.496 39.197 200.311 L 39.197 200.311 L 39.197 200.311 Q 38.265 199.949 37.935 199.588 L 37.935 199.588 L 37.935 199.588 Q 37.605 199.227 37.605 198.65 L 37.605 198.65 L 37.605 198.65 Q 37.605 197.957 38.165 197.574 L 38.165 197.574 L 38.165 197.574 Q 38.724 197.19 39.686 197.19 L 39.686 197.19 L 39.686 197.19 Q 40.638 197.19 41.487 197.576 L 41.487 197.576 L 41.116 198.44 L 41.116 198.44 Q 40.242 198.079 39.646 198.079 L 39.646 198.079 L 39.646 198.079 Q 38.738 198.079 38.738 198.597 L 38.738 198.597 L 38.738 198.597 Q 38.738 198.851 38.975 199.026 L 38.975 199.026 L 38.975 199.026 Q 39.212 199.202 40.008 199.51 L 40.008 199.51 L 40.008 199.51 Q 40.677 199.769 40.979 199.983 L 40.979 199.983 L 40.979 199.983 Q 41.282 200.198 41.429 200.479 L 41.429 200.479 L 41.429 200.479 Q 41.575 200.76 41.575 201.15 Z  M 45.174 202.786 L 45.174 202.786 L 45.174 202.786 Q 43.914 202.786 43.204 202.051 L 43.204 202.051 L 43.204 202.051 Q 42.493 201.316 42.493 200.027 L 42.493 200.027 L 42.493 200.027 Q 42.493 198.704 43.152 197.947 L 43.152 197.947 L 43.152 197.947 Q 43.812 197.19 44.964 197.19 L 44.964 197.19 L 44.964 197.19 Q 46.033 197.19 46.653 197.84 L 46.653 197.84 L 46.653 197.84 Q 47.273 198.489 47.273 199.627 L 47.273 199.627 L 47.273 200.247 L 43.675 200.247 L 43.675 200.247 Q 43.699 201.033 44.1 201.456 L 44.1 201.456 L 44.1 201.456 Q 44.5 201.878 45.228 201.878 L 45.228 201.878 L 45.228 201.878 Q 45.706 201.878 46.119 201.788 L 46.119 201.788 L 46.119 201.788 Q 46.531 201.697 47.005 201.487 L 47.005 201.487 L 47.005 202.42 L 47.005 202.42 Q 46.585 202.62 46.155 202.703 L 46.155 202.703 L 46.155 202.703 Q 45.726 202.786 45.174 202.786 Z  M 44.964 198.06 L 44.964 198.06 L 44.964 198.06 Q 44.417 198.06 44.087 198.406 L 44.087 198.406 L 44.087 198.406 Q 43.758 198.753 43.694 199.417 L 43.694 199.417 L 46.146 199.417 L 46.146 199.417 Q 46.136 198.748 45.823 198.404 L 45.823 198.404 L 45.823 198.404 Q 45.511 198.06 44.964 198.06 Z  M 50.589 201.858 L 50.589 201.858 L 50.589 201.858 Q 51.009 201.858 51.429 201.727 L 51.429 201.727 L 51.429 202.591 L 51.429 202.591 Q 51.238 202.674 50.938 202.73 L 50.938 202.73 L 50.938 202.73 Q 50.638 202.786 50.315 202.786 L 50.315 202.786 L 50.315 202.786 Q 48.685 202.786 48.685 201.067 L 48.685 201.067 L 48.685 198.157 L 47.947 198.157 L 47.947 197.649 L 48.738 197.229 L 49.129 196.087 L 49.837 196.087 L 49.837 197.288 L 51.375 197.288 L 51.375 198.157 L 49.837 198.157 L 49.837 201.048 L 49.837 201.048 Q 49.837 201.463 50.044 201.661 L 50.044 201.661 L 50.044 201.661 Q 50.252 201.858 50.589 201.858 Z " fill="rgb(13,13,13)"/><path d=" M 38.392 43.759 L 38.392 46.688 L 37.235 46.688 L 37.235 39.55 L 41.263 39.55 L 41.263 40.536 L 38.392 40.536 L 38.392 42.768 L 41.083 42.768 L 41.083 43.759 L 38.392 43.759 L 38.392 43.759 Z  M 45.174 41.19 L 45.174 41.19 L 45.174 41.19 Q 45.521 41.19 45.746 41.239 L 45.746 41.239 L 45.633 42.309 L 45.633 42.309 Q 45.389 42.25 45.125 42.25 L 45.125 42.25 L 45.125 42.25 Q 44.437 42.25 44.01 42.699 L 44.01 42.699 L 44.01 42.699 Q 43.583 43.148 43.583 43.866 L 43.583 43.866 L 43.583 46.688 L 42.435 46.688 L 42.435 41.288 L 43.333 41.288 L 43.485 42.24 L 43.543 42.24 L 43.543 42.24 Q 43.812 41.757 44.244 41.474 L 44.244 41.474 L 44.244 41.474 Q 44.676 41.19 45.174 41.19 Z  M 49.105 46.786 L 49.105 46.786 L 49.105 46.786 Q 47.845 46.786 47.135 46.051 L 47.135 46.051 L 47.135 46.051 Q 46.424 45.316 46.424 44.027 L 46.424 44.027 L 46.424 44.027 Q 46.424 42.704 47.083 41.947 L 47.083 41.947 L 47.083 41.947 Q 47.743 41.19 48.895 41.19 L 48.895 41.19 L 48.895 41.19 Q 49.964 41.19 50.584 41.84 L 50.584 41.84 L 50.584 41.84 Q 51.205 42.489 51.205 43.627 L 51.205 43.627 L 51.205 44.247 L 47.606 44.247 L 47.606 44.247 Q 47.63 45.033 48.031 45.456 L 48.031 45.456 L 48.031 45.456 Q 48.431 45.878 49.159 45.878 L 49.159 45.878 L 49.159 45.878 Q 49.637 45.878 50.05 45.788 L 50.05 45.788 L 50.05 45.788 Q 50.462 45.697 50.936 45.487 L 50.936 45.487 L 50.936 46.42 L 50.936 46.42 Q 50.516 46.62 50.086 46.703 L 50.086 46.703 L 50.086 46.703 Q 49.657 46.786 49.105 46.786 Z  M 48.895 42.06 L 48.895 42.06 L 48.895 42.06 Q 48.348 42.06 48.019 42.406 L 48.019 42.406 L 48.019 42.406 Q 47.689 42.753 47.625 43.417 L 47.625 43.417 L 50.077 43.417 L 50.077 43.417 Q 50.067 42.748 49.754 42.404 L 49.754 42.404 L 49.754 42.404 Q 49.442 42.06 48.895 42.06 Z  M 54.647 45.868 L 54.647 45.868 L 54.647 45.868 Q 55.37 45.868 55.685 45.451 L 55.685 45.451 L 55.685 45.451 Q 56 45.033 56 44.188 L 56 44.188 L 56 44.008 L 56 44.008 Q 56 43.007 55.675 42.567 L 55.675 42.567 L 55.675 42.567 Q 55.35 42.128 54.627 42.128 L 54.627 42.128 L 54.627 42.128 Q 54.012 42.128 53.69 42.616 L 53.69 42.616 L 53.69 42.616 Q 53.368 43.104 53.368 44.018 L 53.368 44.018 L 53.368 44.018 Q 53.368 45.868 54.647 45.868 Z  M 54.32 46.786 L 54.32 46.786 L 54.32 46.786 Q 53.319 46.786 52.752 46.051 L 52.752 46.051 L 52.752 46.051 Q 52.186 45.316 52.186 43.998 L 52.186 43.998 L 52.186 43.998 Q 52.186 42.68 52.762 41.935 L 52.762 41.935 L 52.762 41.935 Q 53.338 41.19 54.349 41.19 L 54.349 41.19 L 54.349 41.19 Q 54.857 41.19 55.26 41.378 L 55.26 41.378 L 55.26 41.378 Q 55.663 41.566 55.98 41.996 L 55.98 41.996 L 56.019 41.996 L 56.146 41.288 L 57.098 41.288 L 57.098 49.091 L 55.946 49.091 L 55.946 46.801 L 55.946 46.801 Q 55.946 46.586 55.965 46.347 L 55.965 46.347 L 55.965 46.347 Q 55.985 46.107 56 45.98 L 56 45.98 L 55.936 45.98 L 55.936 45.98 Q 55.428 46.786 54.32 46.786 Z  M 20.213 46.688 L 16.024 46.688 L 16.024 39.55 L 17.191 39.55 L 17.191 45.688 L 20.213 45.688 L 20.213 46.688 L 20.213 46.688 Z  M 22.601 43.759 L 22.601 46.688 L 21.444 46.688 L 21.444 39.55 L 25.472 39.55 L 25.472 40.536 L 22.601 40.536 L 22.601 42.768 L 25.292 42.768 L 25.292 43.759 L 22.601 43.759 L 22.601 43.759 Z  M 33.104 43.109 L 33.104 43.109 L 33.104 43.109 Q 33.104 44.853 32.232 45.819 L 32.232 45.819 L 32.232 45.819 Q 31.361 46.786 29.764 46.786 L 29.764 46.786 L 29.764 46.786 Q 28.148 46.786 27.281 45.827 L 27.281 45.827 L 27.281 45.827 Q 26.415 44.867 26.415 43.1 L 26.415 43.1 L 26.415 43.1 Q 26.415 41.332 27.286 40.385 L 27.286 40.385 L 27.286 40.385 Q 28.158 39.438 29.774 39.438 L 29.774 39.438 L 29.774 39.438 Q 31.366 39.438 32.235 40.399 L 32.235 40.399 L 32.235 40.399 Q 33.104 41.361 33.104 43.109 Z  M 27.655 43.109 L 27.655 43.109 L 27.655 43.109 Q 27.655 44.428 28.187 45.109 L 28.187 45.109 L 28.187 45.109 Q 28.719 45.79 29.764 45.79 L 29.764 45.79 L 29.764 45.79 Q 30.804 45.79 31.334 45.116 L 31.334 45.116 L 31.334 45.116 Q 31.864 44.442 31.864 43.109 L 31.864 43.109 L 31.864 43.109 Q 31.864 41.796 31.339 41.117 L 31.339 41.117 L 31.339 41.117 Q 30.814 40.438 29.774 40.438 L 29.774 40.438 L 29.774 40.438 Q 28.724 40.438 28.189 41.117 L 28.189 41.117 L 28.189 41.117 Q 27.655 41.796 27.655 43.109 Z " fill="rgb(13,13,13)"/><path d=" M 25.941 132.759 L 25.941 135.688 L 24.784 135.688 L 24.784 128.55 L 28.812 128.55 L 28.812 129.536 L 25.941 129.536 L 25.941 131.768 L 28.631 131.768 L 28.631 132.759 L 25.941 132.759 L 25.941 132.759 Z  M 34.774 132.979 L 34.774 132.979 L 34.774 132.979 Q 34.774 134.302 34.095 135.044 L 34.095 135.044 L 34.095 135.044 Q 33.417 135.786 32.206 135.786 L 32.206 135.786 L 32.206 135.786 Q 31.449 135.786 30.868 135.444 L 30.868 135.444 L 30.868 135.444 Q 30.287 135.103 29.974 134.463 L 29.974 134.463 L 29.974 134.463 Q 29.662 133.823 29.662 132.979 L 29.662 132.979 L 29.662 132.979 Q 29.662 131.665 30.335 130.928 L 30.335 130.928 L 30.335 130.928 Q 31.009 130.19 32.235 130.19 L 32.235 130.19 L 32.235 130.19 Q 33.407 130.19 34.09 130.945 L 34.09 130.945 L 34.09 130.945 Q 34.774 131.699 34.774 132.979 Z  M 30.843 132.979 L 30.843 132.979 L 30.843 132.979 Q 30.843 134.849 32.225 134.849 L 32.225 134.849 L 32.225 134.849 Q 33.592 134.849 33.592 132.979 L 33.592 132.979 L 33.592 132.979 Q 33.592 131.128 32.215 131.128 L 32.215 131.128 L 32.215 131.128 Q 31.493 131.128 31.168 131.606 L 31.168 131.606 L 31.168 131.606 Q 30.843 132.085 30.843 132.979 Z  M 37.24 128.091 L 37.24 135.688 L 36.092 135.688 L 36.092 128.091 L 37.24 128.091 L 37.24 128.091 Z  M 40.702 135.786 L 40.702 135.786 L 40.702 135.786 Q 39.691 135.786 39.125 135.054 L 39.125 135.054 L 39.125 135.054 Q 38.558 134.321 38.558 132.998 L 38.558 132.998 L 38.558 132.998 Q 38.558 131.67 39.132 130.93 L 39.132 130.93 L 39.132 130.93 Q 39.706 130.19 40.721 130.19 L 40.721 130.19 L 40.721 130.19 Q 41.786 130.19 42.342 130.977 L 42.342 130.977 L 42.401 130.977 L 42.401 130.977 Q 42.318 130.396 42.318 130.059 L 42.318 130.059 L 42.318 128.091 L 43.47 128.091 L 43.47 135.688 L 42.572 135.688 L 42.372 134.98 L 42.318 134.98 L 42.318 134.98 Q 41.766 135.786 40.702 135.786 Z  M 41.009 134.858 L 41.009 134.858 L 41.009 134.858 Q 41.717 134.858 42.04 134.46 L 42.04 134.46 L 42.04 134.46 Q 42.362 134.063 42.372 133.169 L 42.372 133.169 L 42.372 133.008 L 42.372 133.008 Q 42.372 131.987 42.04 131.558 L 42.04 131.558 L 42.04 131.558 Q 41.708 131.128 41 131.128 L 41 131.128 L 41 131.128 Q 40.394 131.128 40.067 131.619 L 40.067 131.619 L 40.067 131.619 Q 39.74 132.109 39.74 133.018 L 39.74 133.018 L 39.74 133.018 Q 39.74 133.916 40.057 134.387 L 40.057 134.387 L 40.057 134.387 Q 40.375 134.858 41.009 134.858 Z  M 48.739 134.15 L 48.739 134.15 L 48.739 134.15 Q 48.739 134.941 48.163 135.364 L 48.163 135.364 L 48.163 135.364 Q 47.586 135.786 46.512 135.786 L 46.512 135.786 L 46.512 135.786 Q 45.433 135.786 44.779 135.459 L 44.779 135.459 L 44.779 134.468 L 44.779 134.468 Q 45.731 134.907 46.551 134.907 L 46.551 134.907 L 46.551 134.907 Q 47.611 134.907 47.611 134.268 L 47.611 134.268 L 47.611 134.268 Q 47.611 134.063 47.494 133.926 L 47.494 133.926 L 47.494 133.926 Q 47.376 133.789 47.108 133.643 L 47.108 133.643 L 47.108 133.643 Q 46.839 133.496 46.361 133.311 L 46.361 133.311 L 46.361 133.311 Q 45.428 132.949 45.099 132.588 L 45.099 132.588 L 45.099 132.588 Q 44.769 132.227 44.769 131.65 L 44.769 131.65 L 44.769 131.65 Q 44.769 130.957 45.328 130.574 L 45.328 130.574 L 45.328 130.574 Q 45.887 130.19 46.849 130.19 L 46.849 130.19 L 46.849 130.19 Q 47.801 130.19 48.651 130.576 L 48.651 130.576 L 48.28 131.44 L 48.28 131.44 Q 47.406 131.079 46.81 131.079 L 46.81 131.079 L 46.81 131.079 Q 45.902 131.079 45.902 131.597 L 45.902 131.597 L 45.902 131.597 Q 45.902 131.851 46.139 132.026 L 46.139 132.026 L 46.139 132.026 Q 46.375 132.202 47.171 132.51 L 47.171 132.51 L 47.171 132.51 Q 47.84 132.769 48.143 132.983 L 48.143 132.983 L 48.143 132.983 Q 48.446 133.198 48.592 133.479 L 48.592 133.479 L 48.592 133.479 Q 48.739 133.76 48.739 134.15 Z " fill="rgb(13,13,13)"/><path d=" M 25.234 28.602 L 19.062 28.602 L 19.062 18.608 L 21.181 18.608 L 21.181 26.852 L 25.234 26.852 L 25.234 28.602 L 25.234 28.602 Z  M 29.056 24.651 L 29.056 28.602 L 26.971 28.602 L 26.971 18.608 L 32.699 18.608 L 32.699 20.344 L 29.056 20.344 L 29.056 22.921 L 32.446 22.921 L 32.446 24.651 L 29.056 24.651 L 29.056 24.651 Z  M 36.151 24.767 L 36.151 24.767 L 36.151 24.767 Q 36.151 25.902 36.524 26.483 L 36.524 26.483 L 36.524 26.483 Q 36.896 27.064 37.737 27.064 L 37.737 27.064 L 37.737 27.064 Q 38.571 27.064 38.937 26.486 L 38.937 26.486 L 38.937 26.486 Q 39.303 25.909 39.303 24.767 L 39.303 24.767 L 39.303 24.767 Q 39.303 23.632 38.934 23.065 L 38.934 23.065 L 38.934 23.065 Q 38.564 22.498 37.724 22.498 L 37.724 22.498 L 37.724 22.498 Q 36.89 22.498 36.521 23.062 L 36.521 23.062 L 36.521 23.062 Q 36.151 23.625 36.151 24.767 Z  M 41.436 24.767 L 41.436 24.767 L 41.436 24.767 Q 41.436 26.633 40.451 27.686 L 40.451 27.686 L 40.451 27.686 Q 39.467 28.739 37.71 28.739 L 37.71 28.739 L 37.71 28.739 Q 36.609 28.739 35.769 28.257 L 35.769 28.257 L 35.769 28.257 Q 34.928 27.775 34.477 26.873 L 34.477 26.873 L 34.477 26.873 Q 34.025 25.97 34.025 24.767 L 34.025 24.767 L 34.025 24.767 Q 34.025 22.894 35.003 21.855 L 35.003 21.855 L 35.003 21.855 Q 35.98 20.816 37.751 20.816 L 37.751 20.816 L 37.751 20.816 Q 38.852 20.816 39.692 21.294 L 39.692 21.294 L 39.692 21.294 Q 40.533 21.773 40.984 22.668 L 40.984 22.668 L 40.984 22.668 Q 41.436 23.564 41.436 24.767 Z  M 45.243 17.965 L 45.243 28.602 L 43.158 28.602 L 43.158 17.965 L 45.243 17.965 L 45.243 17.965 Z  M 49.851 28.739 L 49.851 28.739 L 49.851 28.739 Q 48.504 28.739 47.735 27.693 L 47.735 27.693 L 47.735 27.693 Q 46.966 26.647 46.966 24.794 L 46.966 24.794 L 46.966 24.794 Q 46.966 22.915 47.749 21.865 L 47.749 21.865 L 47.749 21.865 Q 48.531 20.816 49.905 20.816 L 49.905 20.816 L 49.905 20.816 Q 51.348 20.816 52.106 21.937 L 52.106 21.937 L 52.175 21.937 L 52.175 21.937 Q 52.018 21.083 52.018 20.413 L 52.018 20.413 L 52.018 17.965 L 54.109 17.965 L 54.109 28.602 L 52.51 28.602 L 52.106 27.611 L 52.018 27.611 L 52.018 27.611 Q 51.307 28.739 49.851 28.739 Z  M 50.582 27.078 L 50.582 27.078 L 50.582 27.078 Q 51.382 27.078 51.754 26.613 L 51.754 26.613 L 51.754 26.613 Q 52.127 26.148 52.161 25.034 L 52.161 25.034 L 52.161 24.808 L 52.161 24.808 Q 52.161 23.578 51.782 23.044 L 51.782 23.044 L 51.782 23.044 Q 51.402 22.511 50.548 22.511 L 50.548 22.511 L 50.548 22.511 Q 49.851 22.511 49.464 23.103 L 49.464 23.103 L 49.464 23.103 Q 49.078 23.694 49.078 24.822 L 49.078 24.822 L 49.078 24.822 Q 49.078 25.95 49.468 26.514 L 49.468 26.514 L 49.468 26.514 Q 49.857 27.078 50.582 27.078 Z " fill="rgb(13,13,13)"/></g><line x1="8" y1="282" x2="68" y2="282" vector-effect="non-scaling-stroke" stroke-width="0.509" stroke="rgb(13,13,13)" stroke-linejoin="miter" stroke-linecap="square" stroke-miterlimit="3"/><path d=" M 24.777 185.937 C 17.718 181.636 13 173.864 13 165 C 13 151.478 23.978 140.5 37.5 140.5 C 51.022 140.5 62 151.478 62 165 C 62 173.864 57.282 181.636 50.223 185.937" fill="none" vector-effect="non-scaling-stroke" stroke-width="1" stroke="rgb(120,120,120)" stroke-linejoin="miter" stroke-linecap="square" stroke-miterlimit="3"/><path d=" M 24.777 252.937 C 17.718 248.636 13 240.864 13 232 C 13 218.478 23.978 207.5 37.5 207.5 C 51.022 207.5 62 218.478 62 232 C 62 240.864 57.282 248.636 50.223 252.937" fill="none" vector-effect="non-scaling-stroke" stroke-width="1" stroke="rgb(120,120,120)" stroke-linejoin="miter" stroke-linecap="square" stroke-miterlimit="3"/><path d=" M 24.777 96.937 C 17.718 92.636 13 84.864 13 76 C 13 62.478 23.978 51.5 37.5 51.5 C 51.022 51.5 62 62.478 62 76 C 62 84.864 57.282 92.636 50.223 96.937" fill="none" vector-effect="non-scaling-stroke" stroke-width="1" stroke="rgb(120,120,120)" stroke-linejoin="miter" stroke-linecap="square" stroke-miterlimit="3"/><line x1="55" y1="277" x2="55" y2="282" vector-effect="non-scaling-stroke" stroke-width="0.598" stroke="rgb(120,120,120)" stroke-linejoin="miter" stroke-linecap="square" stroke-miterlimit="3"/><line x1="20" y1="277" x2="20" y2="282" vector-effect="non-scaling-stroke" stroke-width="0.598" stroke="rgb(120,120,120)" stroke-linejoin="miter" stroke-linecap="square" stroke-miterlimit="3"/><g><line x1="8" y1="114" x2="20" y2="114" vector-effect="non-scaling-stroke" stroke-width="0.5" stroke="rgb(60,120,160)" stroke-linejoin="miter" stroke-linecap="square" stroke-miterlimit="3"/><line x1="55" y1="114" x2="67" y2="114" vector-effect="non-scaling-stroke" stroke-width="0.5" stroke="rgb(60,120,160)" stroke-linejoin="miter" stroke-linecap="square" stroke-miterlimit="3"/></g><line x1="37.5" y1="208" x2="37.5" y2="210" vector-effect="non-scaling-stroke" stroke-width="1.886" stroke="rgb(120,120,120)" stroke-linejoin="miter" stroke-linecap="square" stroke-miterlimit="3"/></g></svg>