<?xml version="1.0" standalone="no"?><!-- Generator: Gravit.io --><svg xmlns="http://www.w3.org/2000/svg" xmlns:xlink="http://www.w3.org/1999/xlink" style="isolation:isolate" viewBox="0 0 13 9" width="13" height="9"><defs><clipPath id="_clipPath_gdyXc3W2R8aIeDNKMEAwhyHOIXzUJgbT"><rect width="13" height="9"/></clipPath></defs><g clip-path="url(#_clipPath_gdyXc3W2R8aIeDNKMEAwhyHOIXzUJgbT)"><rect width="13" height="9" style="fill:rgb(239,239,239)"/><g id="Uni Off"><path d="M 1.461 0.266 L 11.639 0.266 C 12.28 0.266 12.8 0.786 12.8 1.427 L 12.8 7.606 C 12.8 8.246 12.28 8.766 11.639 8.766 L 1.461 8.766 C 0.82 8.766 0.3 8.246 0.3 7.606 L 0.3 1.427 C 0.3 0.786 0.82 0.266 1.461 0.266 Z" style="fill:none;stroke:#8B8B8B;stroke-width:0.661243373013227;stroke-linecap:square;stroke-miterlimit:3;"/><path d=" M 3.219 7.354 L 3.219 1.643 L 4.996 1.643 L 4.996 1.643 Q 6.211 1.643 6.76 1.988 L 6.76 1.988 L 6.76 1.988 Q 7.309 2.334 7.309 3.088 L 7.309 3.088 L 7.309 3.088 Q 7.309 3.6 7.068 3.928 L 7.068 3.928 L 7.068 3.928 Q 6.828 4.256 6.43 4.322 L 6.43 4.322 L 6.43 4.361 L 6.43 4.361 Q 6.973 4.482 7.213 4.814 L 7.213 4.814 L 7.213 4.814 Q 7.453 5.146 7.453 5.697 L 7.453 5.697 L 7.453 5.697 Q 7.453 6.479 6.889 6.916 L 6.889 6.916 L 6.889 6.916 Q 6.324 7.354 5.355 7.354 L 5.355 7.354 L 3.219 7.354 L 3.219 7.354 Z  M 4.43 2.635 L 4.43 3.904 L 5.133 3.904 L 5.133 3.904 Q 5.625 3.904 5.846 3.752 L 5.846 3.752 L 5.846 3.752 Q 6.066 3.6 6.066 3.248 L 6.066 3.248 L 6.066 3.248 Q 6.066 2.92 5.826 2.777 L 5.826 2.777 L 5.826 2.777 Q 5.586 2.635 5.066 2.635 L 5.066 2.635 L 4.43 2.635 L 4.43 2.635 Z  M 5.18 4.865 L 4.43 4.865 L 4.43 6.354 L 5.219 6.354 L 5.219 6.354 Q 5.719 6.354 5.957 6.162 L 5.957 6.162 L 5.957 6.162 Q 6.195 5.971 6.195 5.576 L 6.195 5.576 L 6.195 5.576 Q 6.195 4.865 5.18 4.865 L 5.18 4.865 L 5.18 4.865 Z  M 9.805 7.354 L 8.594 7.354 L 8.594 1.643 L 9.805 1.643 L 9.805 7.354 L 9.805 7.354 Z " fill-rule="evenodd" fill="rgb(139,139,139)"/></g></g></svg>