<?xml version="1.0" standalone="no"?><!-- Generator: Gravit.io --><svg xmlns="http://www.w3.org/2000/svg" xmlns:xlink="http://www.w3.org/1999/xlink" style="isolation:isolate" viewBox="0 0 23 9" width="23" height="9"><defs><clipPath id="_clipPath_HGB3Sq1dkJLkvMtvOqS8QoubGgSm6z1r"><rect width="23" height="9"/></clipPath></defs><g clip-path="url(#_clipPath_HGB3Sq1dkJLkvMtvOqS8QoubGgSm6z1r)"><rect width="23" height="9" style="fill:rgb(239,239,239)"/><g id="Tri On"><rect x="0.3" y="0.266" width="11" height="9" transform="matrix(1,0,0,1,0,0)" fill="rgb(60,120,160)"/><path d="M 1.62 0.266 L 21.38 0.266 C 22.274 0.266 23 0.992 23 1.886 L 23 7.646 C 23 8.54 22.274 9.266 21.38 9.266 L 1.62 9.266 C 0.726 9.266 0 8.54 0 7.646 L 0 1.886 C 0 0.992 0.726 0.266 1.62 0.266 Z" style="fill:none;stroke:#3C78A0;stroke-width:0.9229582069908973;stroke-linecap:square;stroke-miterlimit:3;"/><line x1="2" y1="7" x2="6" y2="3" vector-effect="non-scaling-stroke" stroke-width="1" stroke="rgb(239,239,239)" stroke-linejoin="round" stroke-linecap="round" stroke-miterlimit="3"/><line x1="6" y1="3" x2="10" y2="7" vector-effect="non-scaling-stroke" stroke-width="1" stroke="rgb(239,239,239)" stroke-linejoin="round" stroke-linecap="round" stroke-miterlimit="3"/><path d=" M 13 7 C 13.203 4.651 14.546 3.327 17 3" fill="none" vector-effect="non-scaling-stroke" stroke-width="1" stroke="rgb(60,120,160)" stroke-linejoin="round" stroke-linecap="round" stroke-miterlimit="3"/><path d=" M 21 7 C 20.797 4.651 19.454 3.327 17 3" fill="none" vector-effect="non-scaling-stroke" stroke-width="1" stroke="rgb(60,120,160)" stroke-linejoin="round" stroke-linecap="round" stroke-miterlimit="3"/></g></g></svg>