<?xml version="1.0" standalone="no"?><!-- Generator: Gravit.io --><svg xmlns="http://www.w3.org/2000/svg" xmlns:xlink="http://www.w3.org/1999/xlink" style="isolation:isolate" viewBox="0 0 13 9" width="13" height="9"><defs><clipPath id="_clipPath_EWF0EgGE7mm59wPvpgnCV0ZdImAL18CN"><rect width="13" height="9"/></clipPath></defs><g clip-path="url(#_clipPath_EWF0EgGE7mm59wPvpgnCV0ZdImAL18CN)"><rect width="13" height="9" style="fill:rgb(239,239,239)"/><g id="Uni On"><path d="M 1.461 0.27 L 11.639 0.27 C 12.28 0.27 12.8 0.79 12.8 1.431 L 12.8 7.609 C 12.8 8.25 12.28 8.77 11.639 8.77 L 1.461 8.77 C 0.82 8.77 0.3 8.25 0.3 7.609 L 0.3 1.431 C 0.3 0.79 0.82 0.27 1.461 0.27 Z" style="stroke:none;fill:#8B8B8B;stroke-miterlimit:10;"/><path d="M 1.461 0.27 L 11.639 0.27 C 12.28 0.27 12.8 0.79 12.8 1.431 L 12.8 7.609 C 12.8 8.25 12.28 8.77 11.639 8.77 L 1.461 8.77 C 0.82 8.77 0.3 8.25 0.3 7.609 L 0.3 1.431 C 0.3 0.79 0.82 0.27 1.461 0.27 Z" style="fill:none;stroke:#8B8B8B;stroke-width:0.661243373013227;stroke-linecap:square;stroke-miterlimit:3;"/><path d=" M 3.219 7.357 L 3.219 1.646 L 4.996 1.646 L 4.996 1.646 Q 6.211 1.646 6.76 1.992 L 6.76 1.992 L 6.76 1.992 Q 7.309 2.338 7.309 3.092 L 7.309 3.092 L 7.309 3.092 Q 7.309 3.603 7.068 3.931 L 7.068 3.931 L 7.068 3.931 Q 6.828 4.26 6.43 4.326 L 6.43 4.326 L 6.43 4.365 L 6.43 4.365 Q 6.973 4.486 7.213 4.818 L 7.213 4.818 L 7.213 4.818 Q 7.453 5.15 7.453 5.701 L 7.453 5.701 L 7.453 5.701 Q 7.453 6.482 6.889 6.92 L 6.889 6.92 L 6.889 6.92 Q 6.324 7.357 5.355 7.357 L 5.355 7.357 L 3.219 7.357 L 3.219 7.357 Z  M 4.43 2.638 L 4.43 3.908 L 5.133 3.908 L 5.133 3.908 Q 5.625 3.908 5.846 3.756 L 5.846 3.756 L 5.846 3.756 Q 6.066 3.603 6.066 3.252 L 6.066 3.252 L 6.066 3.252 Q 6.066 2.924 5.826 2.781 L 5.826 2.781 L 5.826 2.781 Q 5.586 2.638 5.066 2.638 L 5.066 2.638 L 4.43 2.638 L 4.43 2.638 Z  M 5.18 4.869 L 4.43 4.869 L 4.43 6.357 L 5.219 6.357 L 5.219 6.357 Q 5.719 6.357 5.957 6.166 L 5.957 6.166 L 5.957 6.166 Q 6.195 5.974 6.195 5.58 L 6.195 5.58 L 6.195 5.58 Q 6.195 4.869 5.18 4.869 L 5.18 4.869 L 5.18 4.869 Z  M 9.805 7.357 L 8.594 7.357 L 8.594 1.646 L 9.805 1.646 L 9.805 7.357 L 9.805 7.357 Z " fill-rule="evenodd" fill="rgb(239,239,239)"/></g></g></svg>