<?xml version="1.0" standalone="no"?><!-- Generator: Gravit.io --><svg xmlns="http://www.w3.org/2000/svg" xmlns:xlink="http://www.w3.org/1999/xlink" style="isolation:isolate" viewBox="0 0 23 9" width="23" height="9"><defs><clipPath id="_clipPath_qpbDy73Kp15lcdld8scykEQmovZcWmSN"><rect width="23" height="9"/></clipPath></defs><g clip-path="url(#_clipPath_qpbDy73Kp15lcdld8scykEQmovZcWmSN)"><rect width="23" height="9" style="fill:rgb(239,239,239)"/><g id="Sin On"><rect x="11.5" y="0" width="11.2" height="9" transform="matrix(1,0,0,1,0,0)" fill="rgb(60,120,160)"/><path d="M 1.71 0 L 21.29 0 C 22.234 0 23 0.766 23 1.71 L 23 7.29 C 23 8.234 22.234 9 21.29 9 L 1.71 9 C 0.766 9 0 8.234 0 7.29 L 0 1.71 C 0 0.766 0.766 0 1.71 0 Z" style="fill:none;stroke:#3C78A0;stroke-width:0.9229582069908973;stroke-linecap:square;stroke-miterlimit:3;"/><line x1="2" y1="7" x2="6" y2="3" vector-effect="non-scaling-stroke" stroke-width="1" stroke="rgb(60,120,160)" stroke-linejoin="round" stroke-linecap="round" stroke-miterlimit="3"/><line x1="6" y1="3" x2="10" y2="7" vector-effect="non-scaling-stroke" stroke-width="1" stroke="rgb(60,120,160)" stroke-linejoin="round" stroke-linecap="round" stroke-miterlimit="3"/><path d=" M 13 7 C 13.203 4.651 14.546 3.327 17 3" fill="none" vector-effect="non-scaling-stroke" stroke-width="1" stroke="rgb(239,239,239)" stroke-linejoin="round" stroke-linecap="round" stroke-miterlimit="3"/><path d=" M 21 7 C 20.797 4.651 19.454 3.327 17 3" fill="none" vector-effect="non-scaling-stroke" stroke-width="1" stroke="rgb(239,239,239)" stroke-linejoin="round" stroke-linecap="round" stroke-miterlimit="3"/></g></g></svg>